/* XPM */
static char * background_xpm[] = {
"64 64 68 1",
" 	c None",
".	c #010101",
"+	c #030001",
"@	c #020101",
"#	c #020001",
"$	c #020102",
"%	c #030002",
"&	c #010102",
"*	c #020002",
"=	c #020202",
"-	c #030101",
";	c #010103",
">	c #020103",
",	c #020203",
"'	c #040202",
")	c #030202",
"!	c #030103",
"~	c #030003",
"{	c #040203",
"]	c #030102",
"^	c #040102",
"/	c #030203",
"(	c #020204",
"_	c #030104",
":	c #040104",
"<	c #030004",
"[	c #040103",
"}	c #020104",
"|	c #030204",
"1	c #020003",
"2	c #040101",
"3	c #020201",
"4	c #010201",
"5	c #010302",
"6	c #010204",
"7	c #030201",
"8	c #010203",
"9	c #000201",
"0	c #020100",
"a	c #030100",
"b	c #000202",
"c	c #010304",
"d	c #040002",
"e	c #030301",
"f	c #040201",
"g	c #010202",
"h	c #050104",
"i	c #050205",
"j	c #040204",
"k	c #040105",
"l	c #050206",
"m	c #050303",
"n	c #070106",
"o	c #060206",
"p	c #050304",
"q	c #030306",
"r	c #080206",
"s	c #060106",
"t	c #050204",
"u	c #040205",
"v	c #080307",
"w	c #080207",
"x	c #060204",
"y	c #060203",
"z	c #050203",
"A	c #040206",
"B	c #060104",
"C	c #070206",
"......++@.#+.......................................#+#....@+++++",
"..#.$%#...........................................+++....@++@##@",
"..@&*%*....@+...#@.........................#@....@++++====-+###@",
"..&;%+++#++++..++@.....@++........#+#..==..++>,===')=)====!%-'''",
"..>~%+++++#++..++@.++.++++......;~+++..==#+%+$=,=){')====']+^'/(",
".&_:%++++#.++&.++@.#+++%&..@##..*%++%%+..++&&=/>.$:)))===,)-^))'",
"!_<$%%++++#@%*#++@.#+++%*#++###@$$++*$#..++##@--=,[)=)==,(_[/=)=",
"::~*%++++++#++++...#+++++++.#+++##+++#+..++++++!(){)=)==(::(,==)",
"~%+%%+++++@.*:_+...#++++++%>.@+++++++++++')(,@.%:((,=)===,(===)'",
"~%%>$+^)=%%%~_(@...$%$$-+$}$+++#....++++#$)/=@+^|(:|=),((((//=_:",
":::|]+^{'{_~1>*+@,/!%!['{[::++@#%%++-{[++++$*^'/_[[//((,((/{:_|:",
"~!_=-+[:/,/_:[^%$>!$@+-]!<%%++][~%%+%::++^^++$)/_/,,2]/),(||,,(]",
"+%_[]+[::{':_:[%%;@+++++1;.#+.)'!>&+%_(+*(,@@]'{|(,3+#=)(((((,>~",
"++[:%+>(]+%1;1~~*..++~~@......;&....&((+#&>~@&.&(,..+@=)(((((=/:",
"%%~:~%!(>~++*;;*.&*##..++...#..&&...&>]-44&;>$&;=3#.+.==((/)='[{",
"~~~>_|$&>~++.;;&&&&&#..#@#..@@#$&..#%~$=5=(~+@...@+++@==((/))''/",
":::_((!~>((,,~~__>&*++#++%;...>&..@+%;;;;;>%.##..@+@.#==(((,/'[|",
":_(_[[~~]'!['%~:6>.@~;&..@.&;&....@+#;&@&$@.....++++++==((:)7:((",
"~~~~%%%%1>;~%~~1&#@*~%%&&;............@#..&*&&.@+++#@@))((_/$%+^",
":[%%~:[[$&*+#>>*###%>&&&&;.............##;;++@.@++^-++'=$]!~>$][",
"::~+$(:|8*+#.>~~-.@+.9...&...........#++.;.+.##@+~|=+@==++&.-'/,",
"~%++++@.@#&;&~*.....................@+#............@)===..==-+$(",
"~*$@%>&;>~1>$*0#.........&..@..@@..@#++@9..&&.....%%====..==]-]/",
"~+++$>>,>%~:/*@##.......&&..#..#@..@++.....,,===,}%@)===.#$=)'/,",
"~#@@#*~!~%~~@@#+.....&&&.......................&;}%a----]^)=,/::",
"~&@#..%~%+~1&..##...;;;;.......+#...............;>~$.#+.)')((:/)",
"((%#@.*~>;#@b.&;&..+#&;&...&.....................>~$....)'>&-=(_",
"||%&$%%%]*@&9.....&&......&&&..................&;>$4....){~%$,((",
"::>;1%[/=$1;;..+@.&&............................====....){~$=,((",
":';;$=((>~~....++........&;.............@+@......!~...==)'$.@%%~",
"_,@$,(((}~~..@++....&.................................===)-+++--",
"~%'/>&,(|:]........&&..........&;;&..............&/)==.#+++#=/''",
"^2!}>)-]$)7........##.........&;;&..............,(:[==.#++-)/:/)",
"')>@^=@@&)).........;;........;;&...............=/_c==..++,,[:[)",
":::),,=(|:!.&@+....&~*....................@+@........&(,=(}+^:|(",
"::_(=$>}]^-;;#...&&**&..@......@@........@.&&....@@...==//!]7===",
":(((]+%~%*;;;@..#$&...@+++#+...@@........@;;.....$/,,=,(_(_/===)",
"((((_^$&%~>((..&;;;&...@.@++....;&.......;;;......&&&.=,((:))'{:",
",=/:::]+%~!((.@..&;%+.....#.......++.....;&......#+...==|:''':::",
"#.![/,){|||,(#+...#+#$&....@............&;&=,&.@@@'{====:[]+>|_|",
"d]:'7e'__:!/:%*....@.&;&@@++@..........;;&.,(;.--]::===={'^$!:_|",
":(_'[{[_]%>|_~~..==.&;*++#@#...&&......;;&;(=..@'{_,.@')':|(_:|/",
":_:,_:::['/((((((;;,($+@.@.@+#,($.....&;&.$:/&.@'/((=,:{[:::::|(",
":_(|::(,)|(((((((;;;,>%+-.#+++!(&....>;&.&;,,$@]::::=='':::''((:",
"%~:{'{::||/[[[:~%@&&&>~-{,~>$*>>$.&&$_,&.|(&@]'{_(|)==''::_/'/|[",
"2]/){:||{{[[//|}!>,)]>%a]8}88>][!!=,,>;=$::_2f),,='f-]['::(,/|_:",
"''''[:::::|(_::::|(,(}%a%>(,=,:::|,(_~;((:,)=)),(/''++{':(==((/'",
":::_::''((::{+%_'['/($+$(_==.@[_(,]~%'[(,(,/(_:^+]{''''':_::|(|!",
":::(,/:||:[{:~!>!::|(!%[[://]d_((_^%[::,=)7')[::%[:/$7^]((:_((/[",
":::((_||:_,{|||%+[|(_:!){::::=,(,,|::!=)''':{/|:_|:[+++.,(__(_[/",
":['/::::::_:_((''[_)':%-:|(_:/=,((_%-'/:',((|::::_['')==((::''::",
"::::==::')=),:)''[[::^+]_(__,_|((:^+%')=!:[::''''[:['{_,|::''::_",
"::[[::{{[%])///''[/)[:[)|(:'++[::[^+++@#&:{|/]+-'/_:')(,::||::::",
"::[[::||[2)_:[[^-^/)'[%]]]{'%%[:|/'^^]g!_{'[{^^)/|(|-@,=[:::::||",
"::::'f/:['':::(@+^'=)^++++{(1+[:_/'')==((((|===',,(,#./:::::''::",
"::::''[:::::_(|:::(_:/''')(,'^',_:[::[':_(|:/='h:/:|(/:['{:'':['",
"::[''[::((_|,/[:://|(/{{/,_:|)/_:|(_:[[:((((='{)'{::{'['':::{{[:",
"::{{['[_|_//(::[[{[|(|:_|_:::|(_:_(|{{___((_|_['{:://|:''[::[[:[",
"ii::jik__:{'/::[[:::_::||{{[:|/{:_/{{{:_:_'::{'':::__((/[:::[[:k",
"lm{:ilk::['[::::::''::::{'{::''[''::::::'[[:'[[{:|(_:::[::::::::",
"nnolp{ili:{:::['{(/::::::::{'{::::::[:::[:::[illllll:[:'ilqqllll",
"rsoollllt{{jk:::{['':{j::[{/|_kkkk:[{jkj{ju|)tllllli{{jullllllln",
"vnnnollliilll::tmmilllll::::::llppi[{lllqli{[illlllp'tlllllllsnw",
"vnnnollllllllli::illlsns::limtllxyzmtlllAllB/{zllsnliilllnnnCvvv"};
