/* XPM */
static char * caractersword_xpm[] = {
"64 64 24 1",
" 	c None",
".	c #FED04F",
"+	c #FEE761",
"@	c #FFE05B",
"#	c #FFEB75",
"$	c #FEAE34",
"%	c #323821",
"&	c #88A043",
"*	c #9FBC4D",
"=	c #17111A",
"-	c #C43F31",
";	c #FFFFFF",
">	c #DBD5D7",
",	c #ADA1A4",
"'	c #B6AAAD",
")	c #87797B",
"!	c #D36C55",
"~	c #D8B78F",
"{	c #FFD7A8",
"]	c #994941",
"^	c #783B38",
"/	c #6C201E",
"(	c #E4A783",
"_	c #767277",
"....++++@@@@####....++++@@@@####....++++@@@@####....++++@@@@####",
"....++++@@@@####....++++@@@@####....++++@@@@####....++++@@@@####",
"....++++@@@@####....++++@@@@####....++++@@@@####....++++@@@@####",
"....++++@@@@####....++++@@@@####....++++@@@@####....++++@@@@####",
"$$$$....@@@@@@@@$$$$....@@@@@@@@$$$$....@@@@@@@@$$$$....@@@@@@@@",
"$$$$....@@@@@@@@$$$$....@@@@@@@@$$$$....@@@@@@@@$$$$....@@@@@@@@",
"$$$$....@@@@@@@@$$$$....@@@@@@@@$$$$....@@@@@@@@$$$$....@@@@@@@@",
"$$$$....@@@@@@@@$$$$....@@@@@@@@$$$$....@@@@@@@@$$$$....@@@@@@@@",
"@@@@####....++++@@@@####....++++@@@@####....++++@@@@####....++++",
"@@@@####....++++@@@@####....++++@@@@####....++++@@@@####....++++",
"@@@@####....++++@@@@####....++++@@@@####....++++@@@@####....++++",
"@@@@####....++++@@@@####....++++@@@@####....++++@@@@####....++++",
"@@@@@@@@$$$$....@@@@@@@@$$$$....@@@@@@@@$$$$....@@@@@@@@$$$$....",
"@@@@@@@@$$$$....@@@@@@@@$$$$....@@@@@@@@$$$$....@@@@@@@@$$$$....",
"@@@@@@@@$$$$....@@@@@@@@$$$$....@@@@@@@@$$$$....@@@@@@@@$$$$....",
"@@@@@@@@$$$$....@@@@%%%%%%%%%%%%%%%%%%%%%%%%%%..@@@@@@@@$$$$....",
"....++++@@@@####....%%%%%%%%%%%%%%%%%%%%%%%%%%##....++++@@@@####",
"....++++@@@@####..%%%%&&&&&&&&&***************%%....++++@@@@####",
"....++++@@@@####..%%%%&&&&&&&&&***************%%....++++@@@====#",
"....++++@@@@####%%--%%&&&&&&&&&&&****&&&&&&&**%%....++++@@=;;;=#",
"$$$$....@@@@@@@@%%--%%&&&&&&&&&&&****&&&&&&&**%%$$$$....@=>;>>=@",
"$$$$....@@@@@@@@%%--%%&&;;;%%;;&&**%%*******%%%%$$$$....=>;,,,=@",
"$$$$....@@@@@@@@%%--%%&&;;;%%;;&&**%%*******%%%%$$$$...=>;,')=@@",
"$$$$....@@@@@@@@%%%%%%&&;;;%%;;&&*************%%$$$$..=>;,')=@@@",
"@@@@####....++++%%%%%%&&;;;%%;;&&*************%%@@@@#=>;,')=++++",
"@@@@####....++++@@%%--%%;;;;;;;&&*************%%@@@@=>;,')=.++++",
"@@@@####....++++@@%%--%%;;;;;;;&&*************%%@@@=>;,')=..++++",
"@@@@####....++++@@%%--%%;;;;;;;&&*************%%@@=>;,')=...++++",
"@@@@@@@@$$$$....@@%%--%%&&&&&&&&&*************%%@=>;,')=$$$$....",
"@@@@@@@@$$$$....@@%%--%%&&&&&&&&&*************%%=>;,')=@$$$$....",
"@@@@@@@@$$$$....@@%%%%%%&&&&&&&&&&&**%%%%%%%%%%%>;,')=@@$$$$....",
"@@@@@@@@$$$$....@@%%%%%%&&&&&&&&&&&**%%%%%%%%%%%;,')=@@@$$$$....",
"....++++@@@@####....++%%%%%&&&&*********%%!=#=>;,')=++++@@@@####",
"....++++@@@@####....++%%%%%&&&&*********%%!!=>;,')=.++++@@@@####",
"....++++@@@@####....++++%%%&&~~{{{{{{{{{%%!]!^,')=..++++@@@@####",
"....++++@@@@####....++++%%%&&~~{{{{{{{{{%%=]]]^)=...++++@@@@####",
"$$$$....@@@@@@@@$$$$%%%%%%%&&~~{{{{{{{{{%%=/(]]=$$$$....@@@@@@@@",
"$$$$....@@@@@@@@$$$$%%%%%%%&&~~{{{{{{{{{%%_^/]]]=$$$....@@@@@@@@",
"$$$$....@@@@@@@@$$$$%%*****&&~~{{{{{{{{{%%%%==^]^=$$....@@@@@@@@",
"$$$$....@@@@@@@@$$$$%%*****&&~~{{{{{{{{{%%%%@@=^/=$$....@@@@@@@@",
"@@@@####....++++@@@@%%*****&&~~{{{{{{{{{%%%%+++==@@@####....++++",
"@@@@####....++++@@@@%%%%&&&&&&&**~~~~*****%%++++@@@@####....++++",
"@@@@####....++++@@@@%%%%&&&&&&&**~~~~*****%%++++@@@@####....++++",
"@@@@####....++++@@@@##%%%%%&&********&&&&&%%++++@@@@####....++++",
"@@@@@@@@$$$$....@@@@@@%%%%%&&********&&&&&%%....@@@@@@@@$$$$....",
"@@@@@@@@$$$$....@@@@@@@@%%%&&**%%%%%%%%%%%$$....@@@@@@@@$$$$....",
"@@@@@@@@$$$$....@@@@@@@@%%%&&**%%%%%%%%%%%$$....@@@@@@@@$$$$....",
"@@@@@@@@$$$$....@@@@@@@@%%%&&%%.@@@@@@@@$$$$....@@@@@@@@$$$$....",
"....++++@@@@####....++++%%%&&%%#....++++@@@@####....++++@@@@####",
"....++++@@@@####....++++%%%%%###....++++@@@@####....++++@@@@####",
"....++++@@@@####....++++%%%%%###....++++@@@@####....++++@@@@####",
"....++++@@@@####....++++@@@@####....++++@@@@####....++++@@@@####",
"$$$$....@@@@@@@@$$$$....@@@@@@@@$$$$....@@@@@@@@$$$$....@@@@@@@@",
"$$$$....@@@@@@@@$$$$....@@@@@@@@$$$$....@@@@@@@@$$$$....@@@@@@@@",
"$$$$....@@@@@@@@$$$$....@@@@@@@@$$$$....@@@@@@@@$$$$....@@@@@@@@",
"$$$$....@@@@@@@@$$$$....@@@@@@@@$$$$....@@@@@@@@$$$$....@@@@@@@@",
"@@@@####....++++@@@@####....++++@@@@####....++++@@@@####....++++",
"@@@@####....++++@@@@####....++++@@@@####....++++@@@@####....++++",
"@@@@####....++++@@@@####....++++@@@@####....++++@@@@####....++++",
"@@@@####....++++@@@@####....++++@@@@####....++++@@@@####....++++",
"@@@@@@@@$$$$....@@@@@@@@$$$$....@@@@@@@@$$$$....@@@@@@@@$$$$....",
"@@@@@@@@$$$$....@@@@@@@@$$$$....@@@@@@@@$$$$....@@@@@@@@$$$$....",
"@@@@@@@@$$$$....@@@@@@@@$$$$....@@@@@@@@$$$$....@@@@@@@@$$$$....",
"@@@@@@@@$$$$....@@@@@@@@$$$$....@@@@@@@@$$$$....@@@@@@@@$$$$...."};
