/* XPM */
static char * caracter2_xpm[] = {
"64 64 12 1",
" 	c #FED04F",
".	c #FEE761",
"+	c #FFE05B",
"@	c #FFEB75",
"#	c #FEAE34",
"$	c #323821",
"%	c #88A043",
"&	c #9FBC4D",
"*	c #C43F31",
"=	c #FFFFFF",
"-	c #D8B78F",
";	c #FFD7A8",
"    ....++++@@@@    ....++++@@@@    ....++++@@@@    ....++++@@@@",
"    ....++++@@@@    ....++++@@@@    ....++++@@@@    ....++++@@@@",
"    ....++++@@@@    ....++++@@@@    ....++++@@@@    ....++++@@@@",
"    ....++++@@@@    ....++++@@@@    ....++++@@@@    ....++++@@@@",
"####    ++++++++####    ++++++++####    ++++++++####    ++++++++",
"####    ++++++++####    ++++++++####    ++++++++####    ++++++++",
"####    ++++++++####    ++++++++####    ++++++++####    ++++++++",
"####    ++++++++####    ++++++++####    ++++++++####    ++++++++",
"++++@@@@    ....++++@@@@    ....++++@@@@    ....++++@@@@    ....",
"++++@@@@    ....++++@@@@    ....++++@@@@    ....++++@@@@    ....",
"++++@@@@    ....++++@@@@    ....++++@@@@    ....++++@@@@    ....",
"++++@@@@    ....++++@@@@    ....++++@@@@    ....++++@@@@    ....",
"++++++++####    ++++++++####    ++++++++####    ++++++++####    ",
"++++++++####    ++++++++####    ++++++++####    ++++++++####    ",
"++++++++####    ++++++++####    ++++++++####    ++++++++####    ",
"++++++++####    ++++$$$$$$$$$$$$$$$$$$$$$$$$$$  ++++++++####    ",
"    ....++++@@@@    $$$$$$$$$$$$$$$$$$$$$$$$$$@@    ....++++@@@@",
"    ....++++@@@@  $$$$%%%%%%%%%&&&&&&&&&&&&&&&$$    ....++++@@@@",
"    ....++++@@@@  $$$$%%%%%%%%%&&&&&&&&&&&&&&&$$    ....++++@@@@",
"    ....++++@@@@$$**$$%%%%%%%%%%%&&&&%%%%%%%&&$$    ....++++@@@@",
"####    ++++++++$$**$$%%%%%%%%%%%&&&&%%%%%%%&&$$####    ++++++++",
"####    ++++++++$$**$$%%==$$$==%%&&$$&&&&&&&$$$$####    ++++++++",
"####    ++++++++$$**$$%%==$$$==%%&&$$&&&&&&&$$$$####    ++++++++",
"####    ++++++++$$$$$$%%==$$$==%%&&&&&&&&&&&&&$$####    ++++++++",
"++++@@@@    ....$$$$$$%%==$$$==%%&&&&&&&&&&&&&$$++++@@@@    ....",
"++++@@@@    ....++$$**$$=======%%&&&&&&&&&&&&&$$++++@@@@    ....",
"++++@@@@    ....++$$**$$=======%%&&&&&&&&&&&&&$$++++@@@@    ....",
"++++@@@@    ....++$$**$$=======%%&&&&&&&&&&&&&$$++++@@@@    ....",
"++++++++####    ++$$**$$%%%%%%%%%&&&&&&&&&&&&&$$++++++++####    ",
"++++++++####    ++$$**$$%%%%%%%%%&&&&&&&&&&&&&$$++++++++####    ",
"++++++++####    ++$$$$$$%%%%%%%%%%%&&$$$$$$$$$$$++++++++####    ",
"++++++++####    ++$$$$$$%%%%%%%%%%%&&$$$$$$$$$$$++++++++####    ",
"    ....++++@@@@    ..$$$$%%%%%&&&&&&&&&$$++@@@@    ....++++@@@@",
"    ....++++@@@@    ..$$$$%%%%%&&&&&&&&&$$++@@@@    ....++++@@@@",
"    ....++++@@@@    ....$$%%%--;;;;;;;;;$$++@@@@    ....++++@@@@",
"    ....++++@@@@    ....$$%%%--;;;;;;;;;$$++@@@@    ....++++@@@@",
"####    ++++++++####$$$$$$%%%--;;;;;;;;;$$++++++####    ++++++++",
"####    ++++++++####$$$$$$%%%--;;;;;;;;;$$++++++####    ++++++++",
"####    ++++++++####$$&&&&%%%$$$$;;;;;;;$$++++++####    ++++++++",
"####    ++++++++####$$&&&&%%%$$$$;;;;;;;$$++++++####    ++++++++",
"++++@@@@    ....++++$$&&&&%%%$$$$;;;;;;;$$  ....++++@@@@    ....",
"++++@@@@    ....++++$$$$%%%%%&&&&$$--&&&$$  ....++++@@@@    ....",
"++++@@@@    ....++++$$$$%%%%%&&&&$$--&&&$$  ....++++@@@@    ....",
"++++@@@@    ....++++@@$$$$%%%%%%%$$&&&&&$$  ....++++@@@@    ....",
"++++++++####    ++++++$$$$%%%%%%%$$&&&&&$$##    ++++++++####    ",
"++++++++####    ++++++++##$$$$$$$$$&&$$$####    ++++++++####    ",
"++++++++####    ++++++++##$$$$$$$$$&&$$$####    ++++++++####    ",
"++++++++####    ++++++++####   $$%%$$+++####    ++++++++####    ",
"    ....++++@@@@    ....++++@@@$$%%$$...++++@@@@    ....++++@@@@",
"    ....++++@@@@    ....++++@@@$$$$ ....++++@@@@    ....++++@@@@",
"    ....++++@@@@    ....++++@@@$$$$ ....++++@@@@    ....++++@@@@",
"    ....++++@@@@    ....++++@@@@    ....++++@@@@    ....++++@@@@",
"####    ++++++++####    ++++++++####    ++++++++####    ++++++++",
"####    ++++++++####    ++++++++####    ++++++++####    ++++++++",
"####    ++++++++####    ++++++++####    ++++++++####    ++++++++",
"####    ++++++++####    ++++++++####    ++++++++####    ++++++++",
"++++@@@@    ....++++@@@@    ....++++@@@@    ....++++@@@@    ....",
"++++@@@@    ....++++@@@@    ....++++@@@@    ....++++@@@@    ....",
"++++@@@@    ....++++@@@@    ....++++@@@@    ....++++@@@@    ....",
"++++@@@@    ....++++@@@@    ....++++@@@@    ....++++@@@@    ....",
"++++++++####    ++++++++####    ++++++++####    ++++++++####    ",
"++++++++####    ++++++++####    ++++++++####    ++++++++####    ",
"++++++++####    ++++++++####    ++++++++####    ++++++++####    ",
"++++++++####    ++++++++####    ++++++++####    ++++++++####    "};
