/* XPM */
static char * caracter2L_xpm[] = {
"64 64 12 1",
" 	c #FED04F",
".	c #FEE761",
"+	c #FFE05B",
"@	c #FFEB75",
"#	c #FEAE34",
"$	c #323821",
"%	c #9FBC4D",
"&	c #88A043",
"*	c #C43F31",
"=	c #FFFFFF",
"-	c #FFD7A8",
";	c #D8B78F",
"    ....++++@@@@    ....++++@@@@    ....++++@@@@    ....++++@@@@",
"    ....++++@@@@    ....++++@@@@    ....++++@@@@    ....++++@@@@",
"    ....++++@@@@    ....++++@@@@    ....++++@@@@    ....++++@@@@",
"    ....++++@@@@    ....++++@@@@    ....++++@@@@    ....++++@@@@",
"####    ++++++++####    ++++++++####    ++++++++####    ++++++++",
"####    ++++++++####    ++++++++####    ++++++++####    ++++++++",
"####    ++++++++####    ++++++++####    ++++++++####    ++++++++",
"####    ++++++++####    ++++++++####    ++++++++####    ++++++++",
"++++@@@@    ....++++@@@@    ....++++@@@@    ....++++@@@@    ....",
"++++@@@@    ....++++@@@@    ....++++@@@@    ....++++@@@@    ....",
"++++@@@@    ....++++@@@@    ....++++@@@@    ....++++@@@@    ....",
"++++@@@@    ....++++@@@@    ....++++@@@@    ....++++@@@@    ....",
"++++++++####    ++++++++####    ++++++++####    ++++++++####    ",
"++++++++####    ++++++++####    ++++++++####    ++++++++####    ",
"++++++++####    ++++++++####    ++++++++####    ++++++++####    ",
"++++++++####    ++++++++####    ++++++++####    ++++++++####    ",
"    ....++++@@@@   $$$$$$$$$$$$$$$$$$$$$$$$+@@@@    ....++++@@@@",
"    ....++++@@@@   $$$$$$$$$$$$$$$$$$$$$$$$+@@@@    ....++++@@@@",
"    ....++++@@@@ $$%%%%%%%%%%%%%%&&&&&&&&$$$$@@@    ....++++@@@@",
"    ....++++@@@@ $$%%%%%%%%%%%%%%&&&&&&&&$$$$@@@    ....++++@@@@",
"####    ++++++++#$$%%&&&&&&%%%%&&&&&&&&&&$$**$$+####    ++++++++",
"####    ++++++++#$$%%&&&&&&%%%%&&&&&&&&&&$$**$$+####    ++++++++",
"####    ++++++++#$$$$%%%%%%$$%%&&==$$==&&$$**$$+####    ++++++++",
"####    ++++++++#$$$$%%%%%%$$%%&&==$$==&&$$**$$+####    ++++++++",
"++++@@@@    ....+$$%%%%%%%%%%%%&&==$$==&&$$$$$$.++++@@@@    ....",
"++++@@@@    ....+$$%%%%%%%%%%%%&&==$$==&&$$$$$$.++++@@@@    ....",
"++++@@@@    ....+$$%%%%%%%%%%%%&&======$$**$$...++++@@@@    ....",
"++++@@@@    ....+$$%%%%%%%%%%%%&&======$$**$$...++++@@@@    ....",
"++++++++####    +$$%%%%%%%%%%%%&&&&&&&&$$**$$   ++++++++####    ",
"++++++++####    +$$%%%%%%%%%%%%&&&&&&&&$$**$$   ++++++++####    ",
"++++++++####    +$$$$$$$$$$%%&&&&&&&&&&$$$$$$   ++++++++####    ",
"++++++++####    +$$$$$$$$$$%%&&&&&&&&&&$$$$$$   ++++++++####    ",
"    ....++++@@@@    ...$$%%%%%%%%&&&&$$$$+++@@@@    ....++++@@@@",
"    ....++++@@@@    ...$$%%%%%%%%&&&&$$$$+++@@@@    ....++++@@@@",
"    ....++++@@@@    ...$$--------;;&&$$.++++@@@@    ....++++@@@@",
"    ....++++@@@@    ...$$--------;;&&$$.++++@@@@    ....++++@@@@",
"####    ++++++++####   $$--------;;&&$$$$$$+++++####    ++++++++",
"####    ++++++++####   $$--------;;&&$$$$$$+++++####    ++++++++",
"####    ++++++++####   $$------$$$$&&%%%%$$+++++####    ++++++++",
"####    ++++++++####   $$------$$$$&&%%%%$$+++++####    ++++++++",
"++++@@@@    ....++++@@@$$%%;;$$%%%%&&&&$$$$ ....++++@@@@    ....",
"++++@@@@    ....++++@@@$$%%;;$$%%%%&&&&$$$$ ....++++@@@@    ....",
"++++@@@@    ....++++@@@$$%%%%$$&&&&&&$$$$   ....++++@@@@    ....",
"++++@@@@    ....++++@@@$$%%%%$$&&&&&&$$$$   ....++++@@@@    ....",
"++++++++####    ++++++++#$$%%$$$$$$$$+++####    ++++++++####    ",
"++++++++####    ++++++++#$$%%$$$$$$$$+++####    ++++++++####    ",
"++++++++####    ++++++++###$$&&$$+++++++####    ++++++++####    ",
"++++++++####    ++++++++###$$&&$$+++++++####    ++++++++####    ",
"    ....++++@@@@    ....++++@$$$$   ....++++@@@@    ....++++@@@@",
"    ....++++@@@@    ....++++@$$$$   ....++++@@@@    ....++++@@@@",
"    ....++++@@@@    ....++++@@@@    ....++++@@@@    ....++++@@@@",
"    ....++++@@@@    ....++++@@@@    ....++++@@@@    ....++++@@@@",
"####    ++++++++####    ++++++++####    ++++++++####    ++++++++",
"####    ++++++++####    ++++++++####    ++++++++####    ++++++++",
"####    ++++++++####    ++++++++####    ++++++++####    ++++++++",
"####    ++++++++####    ++++++++####    ++++++++####    ++++++++",
"++++@@@@    ....++++@@@@    ....++++@@@@    ....++++@@@@    ....",
"++++@@@@    ....++++@@@@    ....++++@@@@    ....++++@@@@    ....",
"++++@@@@    ....++++@@@@    ....++++@@@@    ....++++@@@@    ....",
"++++@@@@    ....++++@@@@    ....++++@@@@    ....++++@@@@    ....",
"++++++++####    ++++++++####    ++++++++####    ++++++++####    ",
"++++++++####    ++++++++####    ++++++++####    ++++++++####    ",
"++++++++####    ++++++++####    ++++++++####    ++++++++####    ",
"++++++++####    ++++++++####    ++++++++####    ++++++++####    "};
