/* XPM */
static char * caractersword2L_xpm_xpm[] = {
"64 64 25 1",
" 	c None",
".	c #FED04F",
"+	c #FEE761",
"@	c #FFE05B",
"#	c #FFEB75",
"$	c #FEAE34",
"%	c #323821",
"&	c #17111A",
"*	c #9FBC4D",
"=	c #88A043",
"-	c #FFFFFF",
";	c #DBD5D7",
">	c #C43F31",
",	c #ADA1A4",
"'	c #87797B",
")	c #B6AAAD",
"!	c #D36C55",
"~	c #6C201E",
"{	c #783B38",
"]	c #994941",
"^	c #FFD7A8",
"/	c #D8B78F",
"(	c #E4A783",
"_	c #767277",
":	c #B7B5B8",
"....++++@@@@####....++++@@@@####....++++@@@@####....++++@@@@####",
"....++++@@@@####....++++@@@@####....++++@@@@####....++++@@@@####",
"....++++@@@@####....++++@@@@####....++++@@@@####....++++@@@@####",
"....++++@@@@####....++++@@@@####....++++@@@@####....++++@@@@####",
"$$$$....@@@@@@@@$$$$....@@@@@@@@$$$$....@@@@@@@@$$$$....@@@@@@@@",
"$$$$....@@@@@@@@$$$$....@@@@@@@@$$$$....@@@@@@@@$$$$....@@@@@@@@",
"$$$$....@@@@@@@@$$$$....@@@@@@@@$$$$....@@@@@@@@$$$$....@@@@@@@@",
"$$$$....@@@@@@@@$$$$....@@@@@@@@$$$$....@@@@@@@@$$$$....@@@@@@@@",
"@@@@####....++++@@@@####....++++@@@@####....++++@@@@####....++++",
"@@@@####....++++@@@@####....++++@@@@####....++++@@@@####....++++",
"@@@@####....++++@@@@####....++++@@@@####....++++@@@@####....++++",
"@@@@####....++++@@@@####....++++@@@@####....++++@@@@####....++++",
"@@@@@@@@$$$$....@@@@@@@@$$$$....@@@@@@@@$$$$....@@@@@@@@$$$$....",
"@@@@@@@@$$$$....@@@@@@@@$$$$....@@@@@@@@$$$$....@@@@@@@@$$$$....",
"@@@@@@@@$$$$....@@@@@@@@$$$$....@@@@@@@@$$$$....@@@@@@@@$$$$....",
"@@@@@@@@$$$$....@@@@@@@@$$$$....@@@@@@@@$$$$....@@@@@@@@$$$$....",
"....++++@@@@####...%%%%%%%%%%%%%%%%%%%%%%%%@####....++++@@@@####",
"....++++@@@@####...%%%%%%%%%%%%%%%%%%%%%%%%@####....++++@@@@####",
".&&&&+++@@@@####.%%**************========%%%%###....++++@@@@####",
".&---&++@@@@####.%%**************========%%%%###....++++@@@@####",
"$&;;-;&.@@@@@@@@$%%**======****==========%%>>%%@$$$$....@@@@@@@@",
"$&,,,-;&@@@@@@@@$%%**======****==========%%>>%%@$$$$....@@@@@@@@",
"$$&'),-;&@@@@@@@$%%%%******%%**==--%%--==%%>>%%@$$$$....@@@@@@@@",
"$$$&'),-;&@@@@@@$%%%%******%%**==--%%--==%%>>%%@$$$$....@@@@@@@@",
"@@@@&'),-;&.++++@%%************==--%%--==%%%%%%+@@@@####....++++",
"@@@@#&'),-;&++++@%%************==--%%--==%%%%%%+@@@@####....++++",
"@@@@##&'),-;&+++@%%************==------%%>>%%+++@@@@####....++++",
"@@@@###&'),-;&++@%%************==------%%>>%%+++@@@@####....++++",
"@@@@@@@@&'),-;&.@%%************========%%>>%%...@@@@@@@@$$$$....",
"@@@@@@@@$&'),-;&@%%************========%%>>%%...@@@@@@@@$$$$....",
"@@@@@@@@$$&'),-;&%%%%%%%%%%**==========%%%%%%...@@@@@@@@$$$$....",
"@@@@@@@@$$$&'),-;%%%%%%%%%%**==========%%%%%%...@@@@@@@@$$$$....",
"....++++@@@@&'),-;&.&!~%%********====%%%%@@@####....++++@@@@####",
"....++++@@@@#&'),-;&!!!%%********====%%%%@@@####....++++@@@@####",
"....++++@@@@##&'),{!]!&%%^^^^^^^^//==%%+@@@@####....++++@@@@####",
"....++++@@@@###&'{]]]&+%%^^^^^^^^//==%%+@@@@####....++++@@@@####",
"$$$$....@@@@@@@@&]](~&.%%^^^^^^^^//==%%%%%%@@@@@$$$$....@@@@@@@@",
"$$$$....@@@@@@@&]]]~{_&%%^^^^^^^^//==%%%%%%@@@@@$$$$....@@@@@@@@",
"$$$$....@@@@@@&{]{&&_::%%^^^^^^%%%%==****%%@@@@@$$$$....@@@@@@@@",
"$$$$....@@@@@@&~{&$$&_:%%^^^^^^%%%%==****%%@@@@@$$$$....@@@@@@@@",
"@@@@####....+++&&@@@#&_%%**//%%****====%%%%.++++@@@@####....++++",
"@@@@####....++++@@@@##&%%**//%%****====%%%%.++++@@@@####....++++",
"@@@@####....++++@@@@###%%****%%======%%%%...++++@@@@####....++++",
"@@@@####....++++@@@@###%%****%%======%%%%...++++@@@@####....++++",
"@@@@@@@@$$$$....@@@@@@@@$%%**%%%%%%%%@@@$$$$....@@@@@@@@$$$$....",
"@@@@@@@@$$$$....@@@@@@@@$%%**%%%%%%%%@@@$$$$....@@@@@@@@$$$$....",
"@@@@@@@@$$$$....@@@@@@@@$$$%%==%%@@@@@@@$$$$....@@@@@@@@$$$$....",
"@@@@@@@@$$$$....@@@@@@@@$$$%%==%%@@@@@@@$$$$....@@@@@@@@$$$$....",
"....++++@@@@####....++++@@@@#%%%%...++++@@@@####....++++@@@@####",
"....++++@@@@####....++++@@@@#%%%%...++++@@@@####....++++@@@@####",
"....++++@@@@####....++++@@@@####....++++@@@@####....++++@@@@####",
"....++++@@@@####....++++@@@@####....++++@@@@####....++++@@@@####",
"$$$$....@@@@@@@@$$$$....@@@@@@@@$$$$....@@@@@@@@$$$$....@@@@@@@@",
"$$$$....@@@@@@@@$$$$....@@@@@@@@$$$$....@@@@@@@@$$$$....@@@@@@@@",
"$$$$....@@@@@@@@$$$$....@@@@@@@@$$$$....@@@@@@@@$$$$....@@@@@@@@",
"$$$$....@@@@@@@@$$$$....@@@@@@@@$$$$....@@@@@@@@$$$$....@@@@@@@@",
"@@@@####....++++@@@@####....++++@@@@####....++++@@@@####....++++",
"@@@@####....++++@@@@####....++++@@@@####....++++@@@@####....++++",
"@@@@####....++++@@@@####....++++@@@@####....++++@@@@####....++++",
"@@@@####....++++@@@@####....++++@@@@####....++++@@@@####....++++",
"@@@@@@@@$$$$....@@@@@@@@$$$$....@@@@@@@@$$$$....@@@@@@@@$$$$....",
"@@@@@@@@$$$$....@@@@@@@@$$$$....@@@@@@@@$$$$....@@@@@@@@$$$$....",
"@@@@@@@@$$$$....@@@@@@@@$$$$....@@@@@@@@$$$$....@@@@@@@@$$$$....",
"@@@@@@@@$$$$....@@@@@@@@$$$$....@@@@@@@@$$$$....@@@@@@@@$$$$...."};
