/* XPM */
static char * caracterC_xpm[] = {
"64 64 18 1",
" 	c #FED04F",
".	c #FEE761",
"+	c #FFE05B",
"@	c #FFEB75",
"#	c #FEAE34",
"$	c #1B1F21",
"%	c #323821",
"&	c #BD6A62",
"*	c #FFAE70",
"=	c #88A043",
"-	c #9FBC4D",
";	c #F5FFE8",
">	c #C43F31",
",	c #FFFFFF",
"'	c #52333F",
")	c #8F4D57",
"!	c #D8B78F",
"~	c #FFD7A8",
"    ....++++@@@@    ....++++@@@@    ....++++@@@@    ....++++@@@@",
"    ....++++@@@@    ....++++@@@@    ....++++@@@@    ....++++@@@@",
"    ....++++@@@@    ....++++@@@@    ....++++@@@@    ....++++@@@@",
"    ....++++@@@@    ....++++@@@@    ....++++@@@@    ....++++@@@@",
"####    ++++++++####    ++++++++####    ++++++++####    ++++++++",
"####    ++++++++####    ++++++++####    ++++++++####    ++++++++",
"####    ++++++++####    ++++++++####    ++++++++####    ++++++++",
"####    ++++++++####    ++++++++####    ++++++++####    ++++++++",
"++++@@@@    ....++++@@@@    ....++++@@@@    ....++++@@@@    ....",
"++++@@@@    ....++++@@@@    ....++++@@@@    ....++++@@@@    ....",
"++++@@@@    ....++++@@@@    ....++++@@@@    ....++++@@@@    ....",
"++++@@@@    ....++++@@@@    ....++++@@@@    ....++++@@@@    ....",
"++++++++####    ++++++++####    ++++++++####    ++++++++####    ",
"++++++++####    ++++++++####    ++++++++####    ++++++++####    ",
"++++++++####    ++++++++####    ++++++++####$$$$$$$$$$++####    ",
"++++++++%%%%%%%%%%%%%%%%%%%%%%%%%+++++++####$$$$$$$$$$++####    ",
"    ....%%%%%%%%%%%%%%%%%%%%%%%%%   ....++$$&&********$.++++@@@@",
"    ..%%%%%========--------------%%%....$$&&******;;;;*$$+++@@@@",
"    ..%%%%%========--------------%%%....$$&&******;;;;*$$+++@@@@",
"    %%>>%%%==========----======--%%%....$$&&******;;;;*$$+++@@@@",
"####%%>>%%%==========----======--%%%    $$&&******;;;;*$$+++++++",
"####%%>>%%%==========----======--%%%    $$&&***********$$+++++++",
"####%%>>%%%==,,%%,,==--%%------%%%%%    $$&&***********$$+++++++",
"####%%>>%%%==,,%%,,==--%%------%%%%%    $$&&&&******;;*$$+++++++",
"++++%%%%%%%==,,%%,,==------------%%%@@@@$$&&&&******;;*$$   ....",
"++++%%%%%%%==,,%%,,==------------%%%@@@@  $$&&&&******$@    ....",
"++++@@%%>>>%%,,,,,,==------------%%%@@@@  $$&&&&******$@    ....",
"++++@@%%>>>%%,,,,,,==------------%%%@@@@    $$&&&&&&$$@@    ....",
"++++++%%>>>%%========------------%%%++++####$$&&&&&&$$++####    ",
"++++++%%>>>%%========------------%%%++++####$$''''$$++++####    ",
"++++++%%%%%%%==========--%%%%%%%%%%%++++####$$''''$$++++####    ",
"++++++%%%%%%%==========--%%%%%%%%%%%++++####$$))$$++++++####    ",
"    ....+++%%%%====--------%%@@@    ....++$$&&**$$  ....++++@@@@",
"    ....+++%%%%====--------%%@@@    ....++$$&&**$$  ....++++@@@@",
"    ....++++@%%==!!~~~~~~~~%%@@@    ....++$$&&&&$$  ....++++@@@@",
"    ....++++@%%==!!~~~~~~~~%%@@@    ....++$$&&&&$$  ....++++@@@@",
"####    %%%%%%%==!!~~~~~~~~%%+++####    ++++$$$$####    ++++++++",
"####    %%%%%%%==!!~~~~~~~~%%+++####    ++++$$$$####    ++++++++",
"####    %%%----==!!~~~~~~~~%%+++####    ++++++++####    ++++++++",
"####    %%%----==!!~~~~~~~~%%+++####    ++++++++####    ++++++++",
"++++@@@@%%%%%======--!!!!--%%...++++@@@@    ....++++@@@@    ....",
"++++@@@@%%%%%======--!!!!--%%...++++@@@@    ....++++@@@@    ....",
"++++@@@@   %%%%==----------%%...++++@@@@    ....++++@@@@    ....",
"++++@@@@   %%%%==----------%%...++++@@@@    ....++++@@@@    ....",
"++++++++#### %%==--%%%%==--%%   ++++++++####    ++++++++####    ",
"++++++++#### %%==--%%%%==--%%   ++++++++####    ++++++++####    ",
"++++++++#### %%==--%%%%==--%%   ++++++++####    ++++++++####    ",
"++++++++#### %%==%%++%%==%%#    ++++++++####    ++++++++####    ",
"    ....++++@%%==%% .%%==%%+@@@@    ....++++@@@@    ....++++@@@@",
"    ....++++@%%%%   .%%%%+++@@@@    ....++++@@@@    ....++++@@@@",
"    ....++++@%%%%   .%%%%+++@@@@    ....++++@@@@    ....++++@@@@",
"    ....++++@@@@    ....++++@@@@    ....++++@@@@    ....++++@@@@",
"####    ++++++++####    ++++++++####    ++++++++####    ++++++++",
"####    ++++++++####    ++++++++####    ++++++++####    ++++++++",
"####    ++++++++####    ++++++++####    ++++++++####    ++++++++",
"####    ++++++++####    ++++++++####    ++++++++####    ++++++++",
"++++@@@@    ....++++@@@@    ....++++@@@@    ....++++@@@@    ....",
"++++@@@@    ....++++@@@@    ....++++@@@@    ....++++@@@@    ....",
"++++@@@@    ....++++@@@@    ....++++@@@@    ....++++@@@@    ....",
"++++@@@@    ....++++@@@@    ....++++@@@@    ....++++@@@@    ....",
"++++++++####    ++++++++####    ++++++++####    ++++++++####    ",
"++++++++####    ++++++++####    ++++++++####    ++++++++####    ",
"++++++++####    ++++++++####    ++++++++####    ++++++++####    ",
"++++++++####    ++++++++####    ++++++++####    ++++++++####    "};
