/* XPM */
static char * caractersword2_xpm[] = {
"64 64 25 1",
" 	c None",
".	c #FED04F",
"+	c #FEE761",
"@	c #FFE05B",
"#	c #FFEB75",
"$	c #FEAE34",
"%	c #323821",
"&	c #88A043",
"*	c #9FBC4D",
"=	c #17111A",
"-	c #FFFFFF",
";	c #C43F31",
">	c #DBD5D7",
",	c #ADA1A4",
"'	c #B6AAAD",
")	c #87797B",
"!	c #6C201E",
"~	c #D36C55",
"{	c #D8B78F",
"]	c #FFD7A8",
"^	c #994941",
"/	c #783B38",
"(	c #E4A783",
"_	c #767277",
":	c #B7B5B8",
"....++++@@@@####....++++@@@@####....++++@@@@####....++++@@@@####",
"....++++@@@@####....++++@@@@####....++++@@@@####....++++@@@@####",
"....++++@@@@####....++++@@@@####....++++@@@@####....++++@@@@####",
"....++++@@@@####....++++@@@@####....++++@@@@####....++++@@@@####",
"$$$$....@@@@@@@@$$$$....@@@@@@@@$$$$....@@@@@@@@$$$$....@@@@@@@@",
"$$$$....@@@@@@@@$$$$....@@@@@@@@$$$$....@@@@@@@@$$$$....@@@@@@@@",
"$$$$....@@@@@@@@$$$$....@@@@@@@@$$$$....@@@@@@@@$$$$....@@@@@@@@",
"$$$$....@@@@@@@@$$$$....@@@@@@@@$$$$....@@@@@@@@$$$$....@@@@@@@@",
"@@@@####....++++@@@@####....++++@@@@####....++++@@@@####....++++",
"@@@@####....++++@@@@####....++++@@@@####....++++@@@@####....++++",
"@@@@####....++++@@@@####....++++@@@@####....++++@@@@####....++++",
"@@@@####....++++@@@@####....++++@@@@####....++++@@@@####....++++",
"@@@@@@@@$$$$....@@@@@@@@$$$$....@@@@@@@@$$$$....@@@@@@@@$$$$....",
"@@@@@@@@$$$$....@@@@@@@@$$$$....@@@@@@@@$$$$....@@@@@@@@$$$$....",
"@@@@@@@@$$$$....@@@@@@@@$$$$....@@@@@@@@$$$$....@@@@@@@@$$$$....",
"@@@@@@@@$$$$....@@@@@@@@$$$$....@@@@@@@@$$$$....@@@@@@@@$$$$....",
"....++++@@@@####....+%%%%%%%%%%%%%%%%%%%%%%%%###....++++@@@@####",
"....++++@@@@####....+%%%%%%%%%%%%%%%%%%%%%%%%###....++++@@@@####",
"....++++@@@@####...%%%%&&&&&&&&**************%%#....++++@@@====#",
"....++++@@@@####...%%%%&&&&&&&&**************%%#....++++@@=---=#",
"$$$$....@@@@@@@@$%%;;%%&&&&&&&&&&****&&&&&&**%%@$$$$....@=>->>=@",
"$$$$....@@@@@@@@$%%;;%%&&&&&&&&&&****&&&&&&**%%@$$$$....=>-,,,=@",
"$$$$....@@@@@@@@$%%;;%%&&--%%--&&**%%******%%%%@$$$$...=>-,')=@@",
"$$$$....@@@@@@@@$%%;;%%&&--%%--&&**%%******%%%%@$$$$..=>-,')=@@@",
"@@@@####....++++@%%%%%%&&--%%--&&************%%+@@@@#=>-,')=++++",
"@@@@####....++++@%%%%%%&&--%%--&&************%%+@@@@=>-,')=.++++",
"@@@@####....++++@@@%%;;%%------&&************%%+@@@=>-,')=..++++",
"@@@@####....++++@@@%%;;%%------&&************%%+@@=>-,')=...++++",
"@@@@@@@@$$$$....@@@%%;;%%&&&&&&&&************%%.@=>-,')=$$$$....",
"@@@@@@@@$$$$....@@@%%;;%%&&&&&&&&************%%.=>-,')=@$$$$....",
"@@@@@@@@$$$$....@@@%%%%%%&&&&&&&&&&**%%%%%%%%%%=>-,')=@@$$$$....",
"@@@@@@@@$$$$....@@@%%%%%%&&&&&&&&&&**%%%%%%%%%%>-,')=@@@$$$$....",
"....++++@@@@####....+++%%%%&&&&********%%!~=#=>-,')=++++@@@@####",
"....++++@@@@####....+++%%%%&&&&********%%~~~=>-,')=.++++@@@@####",
"....++++@@@@####....++++@%%&&{{]]]]]]]]%%=~^~/,')=..++++@@@@####",
"....++++@@@@####....++++@%%&&{{]]]]]]]]%%@=^^^/)=...++++@@@@####",
"$$$$....@@@@@@@@$$$$.%%%%%%&&{{]]]]]]]]%%@=!(^^=$$$$....@@@@@@@@",
"$$$$....@@@@@@@@$$$$.%%%%%%&&{{]]]]]]]]%%=_/!^^^=$$$....@@@@@@@@",
"$$$$....@@@@@@@@$$$$.%%****&&%%%%]]]]]]%%::_==/^/=$$....@@@@@@@@",
"$$$$....@@@@@@@@$$$$.%%****&&%%%%]]]]]]%%:_=@@=/!=$$....@@@@@@@@",
"@@@@####....++++@@@@#%%%%&&&&****%%{{**%%_=.+++==@@@####....++++",
"@@@@####....++++@@@@#%%%%&&&&****%%{{**%%=..++++@@@@####....++++",
"@@@@####....++++@@@@###%%%%&&&&&&%%****%%...++++@@@@####....++++",
"@@@@####....++++@@@@###%%%%&&&&&&%%****%%...++++@@@@####....++++",
"@@@@@@@@$$$$....@@@@@@@@$$$%%%%%%%%**%%@$$$$....@@@@@@@@$$$$....",
"@@@@@@@@$$$$....@@@@@@@@$$$%%%%%%%%**%%@$$$$....@@@@@@@@$$$$....",
"@@@@@@@@$$$$....@@@@@@@@$$$$...%%&&%%@@@$$$$....@@@@@@@@$$$$....",
"@@@@@@@@$$$$....@@@@@@@@$$$$...%%&&%%@@@$$$$....@@@@@@@@$$$$....",
"....++++@@@@####....++++@@@@###%%%%.++++@@@@####....++++@@@@####",
"....++++@@@@####....++++@@@@###%%%%.++++@@@@####....++++@@@@####",
"....++++@@@@####....++++@@@@####....++++@@@@####....++++@@@@####",
"....++++@@@@####....++++@@@@####....++++@@@@####....++++@@@@####",
"$$$$....@@@@@@@@$$$$....@@@@@@@@$$$$....@@@@@@@@$$$$....@@@@@@@@",
"$$$$....@@@@@@@@$$$$....@@@@@@@@$$$$....@@@@@@@@$$$$....@@@@@@@@",
"$$$$....@@@@@@@@$$$$....@@@@@@@@$$$$....@@@@@@@@$$$$....@@@@@@@@",
"$$$$....@@@@@@@@$$$$....@@@@@@@@$$$$....@@@@@@@@$$$$....@@@@@@@@",
"@@@@####....++++@@@@####....++++@@@@####....++++@@@@####....++++",
"@@@@####....++++@@@@####....++++@@@@####....++++@@@@####....++++",
"@@@@####....++++@@@@####....++++@@@@####....++++@@@@####....++++",
"@@@@####....++++@@@@####....++++@@@@####....++++@@@@####....++++",
"@@@@@@@@$$$$....@@@@@@@@$$$$....@@@@@@@@$$$$....@@@@@@@@$$$$....",
"@@@@@@@@$$$$....@@@@@@@@$$$$....@@@@@@@@$$$$....@@@@@@@@$$$$....",
"@@@@@@@@$$$$....@@@@@@@@$$$$....@@@@@@@@$$$$....@@@@@@@@$$$$....",
"@@@@@@@@$$$$....@@@@@@@@$$$$....@@@@@@@@$$$$....@@@@@@@@$$$$...."};
