/* XPM */
static char * caracterC2_xpm[] = {
"64 64 18 1",
" 	c #FFEB75",
".	c #FFE05B",
"+	c #FEE761",
"@	c #FED04F",
"#	c #FEAE34",
"$	c #1B1F21",
"%	c #323821",
"&	c #FFAE70",
"*	c #BD6A62",
"=	c #F5FFE8",
"-	c #9FBC4D",
";	c #88A043",
">	c #C43F31",
",	c #FFFFFF",
"'	c #52333F",
")	c #8F4D57",
"!	c #FFD7A8",
"~	c #D8B78F",
"    ....++++@@@@    ....++++@@@@    ....++++@@@@    ....++++@@@@",
"    ....++++@@@@    ....++++@@@@    ....++++@@@@    ....++++@@@@",
"    ....++++@@@@    ....++++@@@@    ....++++@@@@    ....++++@@@@",
"    ....++++@@@@    ....++++@@@@    ....++++@@@@    ....++++@@@@",
"........@@@@####........@@@@####........@@@@####........@@@@####",
"........@@@@####........@@@@####........@@@@####........@@@@####",
"........@@@@####........@@@@####........@@@@####........@@@@####",
"........@@@@####........@@@@####........@@@@####........@@@@####",
"++++@@@@    ....++++@@@@    ....++++@@@@    ....++++@@@@    ....",
"++++@@@@    ....++++@@@@    ....++++@@@@    ....++++@@@@    ....",
"++++@@@@    ....++++@@@@    ....++++@@@@    ....++++@@@@    ....",
"++++@@@@    ....++++@@@@    ....++++@@@@    ....++++@@@@    ....",
"@@@@####........@@@@####........@@@@####........@@@@####........",
"@@@@####........@@@@####........@@@@####........@@@@####........",
"@@@@####..$$$$$$$$$$####........@@@@####........@@@@####........",
"@@@@####..$$$$$$$$$$####.......%%%%%%%%%%%%%%%%%%%%%%%%%........",
"    ....+$&&&&&&&&**$$..++++@@@%%%%%%%%%%%%%%%%%%%%%%%%%++++@@@@",
"    ...$$&====&&&&&&**$$++++%%%--------------;;;;;;;;%%%%%++@@@@",
"    ...$$&====&&&&&&**$$++++%%%--------------;;;;;;;;%%%%%++@@@@",
"    ...$$&====&&&&&&**$$++++%%%--;;;;;;----;;;;;;;;;;%%%>>%%@@@@",
".......$$&====&&&&&&**$$@@@@%%%--;;;;;;----;;;;;;;;;;%%%>>%%####",
".......$$&&&&&&&&&&&**$$@@@@%%%--;;;;;;----;;;;;;;;;;%%%>>%%####",
".......$$&&&&&&&&&&&**$$@@@@%%%%%------%%--;;,,%%,,;;%%%>>%%####",
".......$$&==&&&&&&****$$@@@@%%%%%------%%--;;,,%%,,;;%%%>>%%####",
"++++@@@$$&==&&&&&&****$$    %%%------------;;,,%%,,;;%%%%%%%....",
"++++@@@@ $&&&&&&****$$@@    %%%------------;;,,%%,,;;%%%%%%%....",
"++++@@@@ $&&&&&&****$$@@    %%%------------;;,,,,,,%%>>>%%  ....",
"++++@@@@  $$******$$@@@@    %%%------------;;,,,,,,%%>>>%%  ....",
"@@@@####..$$******$$####....%%%------------;;;;;;;;%%>>>%%......",
"@@@@####....$$''''$$####....%%%------------;;;;;;;;%%>>>%%......",
"@@@@####....$$''''$$####....%%%%%%%%%%%--;;;;;;;;;;%%%%%%%......",
"@@@@####......$$))$$####....%%%%%%%%%%%--;;;;;;;;;;%%%%%%%......",
"    ....++++@@$$&&**$$..++++@@@@   %%--------;;;;%%%%...++++@@@@",
"    ....++++@@$$&&**$$..++++@@@@   %%--------;;;;%%%%...++++@@@@",
"    ....++++@@$$****$$..++++@@@@   %%!!!!!!!!~~;;%% ....++++@@@@",
"    ....++++@@$$****$$..++++@@@@   %%!!!!!!!!~~;;%% ....++++@@@@",
"........@@@@####$$$$....@@@@####...%%!!!!!!!!~~;;%%%%%%%@@@@####",
"........@@@@####$$$$....@@@@####...%%!!!!!!!!~~;;%%%%%%%@@@@####",
"........@@@@####........@@@@####...%%!!!!!!!!~~;;----%%%@@@@####",
"........@@@@####........@@@@####...%%!!!!!!!!~~;;----%%%@@@@####",
"++++@@@@    ....++++@@@@    ....+++%%--~~~~--;;;;;;%%%%%    ....",
"++++@@@@    ....++++@@@@    ....+++%%--~~~~--;;;;;;%%%%%    ....",
"++++@@@@    ....++++@@@@    ....+++%%----------;;%%%%@@@    ....",
"++++@@@@    ....++++@@@@    ....+++%%----------;;%%%%@@@    ....",
"@@@@####........@@@@####........@@@%%--;;%%%%--;;%%@####........",
"@@@@####........@@@@####........@@@%%--;;%%%%--;;%%@####........",
"@@@@####........@@@@####........@@@%%--;;%%%%--;;%%@####........",
"@@@@####........@@@@####........@@@@#%%;;%%..%%;;%%@####........",
"    ....++++@@@@    ....++++@@@@    .%%;;%%+@%%;;%% ....++++@@@@",
"    ....++++@@@@    ....++++@@@@    ...%%%%+@@@%%%% ....++++@@@@",
"    ....++++@@@@    ....++++@@@@    ...%%%%+@@@%%%% ....++++@@@@",
"    ....++++@@@@    ....++++@@@@    ....++++@@@@    ....++++@@@@",
"........@@@@####........@@@@####........@@@@####........@@@@####",
"........@@@@####........@@@@####........@@@@####........@@@@####",
"........@@@@####........@@@@####........@@@@####........@@@@####",
"........@@@@####........@@@@####........@@@@####........@@@@####",
"++++@@@@    ....++++@@@@    ....++++@@@@    ....++++@@@@    ....",
"++++@@@@    ....++++@@@@    ....++++@@@@    ....++++@@@@    ....",
"++++@@@@    ....++++@@@@    ....++++@@@@    ....++++@@@@    ....",
"++++@@@@    ....++++@@@@    ....++++@@@@    ....++++@@@@    ....",
"@@@@####........@@@@####........@@@@####........@@@@####........",
"@@@@####........@@@@####........@@@@####........@@@@####........",
"@@@@####........@@@@####........@@@@####........@@@@####........",
"@@@@####........@@@@####........@@@@####........@@@@####........"};
