/* XPM */
static char * collect1_xpm[] = {
"64 64 11 1",
" 	c #FED04F",
".	c #FEE761",
"+	c #FFE05B",
"@	c #FFEB75",
"#	c #FEAE34",
"$	c #1B1F21",
"%	c #BD6A62",
"&	c #FFAE70",
"*	c #F5FFE8",
"=	c #52333F",
"-	c #8F4D57",
"    ....++++@@@@    ....++++@@@@    ....++++@@@@    ....++++@@@@",
"    ....++++@@@@    ....++++@@@@    ....++++@@@@    ....++++@@@@",
"    ....++++@@@@    ....++++@@@@    ....++++@@@@    ....++++@@@@",
"    ....++++@@@@    ....++++@@@@    ....++++@@@@    ....++++@@@@",
"####    ++++++++####    ++++++++####    ++++++++####    ++++++++",
"####    ++++++++####    ++++++++####    ++++++++####    ++++++++",
"####    ++++++++####    ++++++++####    ++++++++####    ++++++++",
"####    ++++++++####    ++++++++####    ++++++++####    ++++++++",
"++++@@@@    ....++++@@@@    ....++++@@@@    ....++++@@@@    ....",
"++++@@@@    ....++++@@@@    ....++++@@@@    ....++++@@@@    ....",
"++++@@@@    ....++++@@@@    ....++++@@@@    ....++++@@@@    ....",
"++++@@@@    ....++++@@@@    ....++++@@@@    ....++++@@@@    ....",
"++++++++####    ++++++++####    ++++++++####    ++++++++####    ",
"++++++++####    ++++++++####    ++++++++####    ++++++++####    ",
"++++++++####    ++++++++####    ++++++++####    ++++++++####    ",
"++++++++####    ++++++++####    ++++++++####    ++++++++####    ",
"    ....++++@@@@    ....++++@@@@    ....++++@@@@    ....++++@@@@",
"    ....++++@@@@    ....++++@@@@    ....++++@@@@    ....++++@@@@",
"    ....++++@@@@    ....++++@@@@    ....++++@@@@    ....++++@@@@",
"    ....++++@@@@    ....++++@@@@    ....++++@@@@    ....++++@@@@",
"####    ++++++++####    ++++++++####    ++++++++####    ++++++++",
"####    ++++++++####    ++++++++####    ++++++++####    ++++++++",
"####    ++++++++####    ++++++++####    ++++++++####    ++++++++",
"####    ++++++++####    ++++++++####    ++++++++####    ++++++++",
"++++@@@@    ....++++@@@@    ....++++@@@@    ....++++@@@@    ....",
"++++@@@@    ....++++@@@@    ....++++@@@@    ....++++@@@@    ....",
"++++@@@@    ....++++@@@@    ....++++@@@@    ....++++@@@@    ....",
"++++@@@@    ....++++@@@@    $$$$$$$$$$@@    ....++++@@@@    ....",
"++++++++####    ++++++++####$$$$$$$$$$++####    ++++++++####    ",
"++++++++####    ++++++++##$$%%&&&&&&&&$+####    ++++++++####    ",
"++++++++####    ++++++++$$%%&&&&&&****&$$###    ++++++++####    ",
"++++++++####    ++++++++$$%%&&&&&&****&$$###    ++++++++####    ",
"    ....++++@@@@    ....$$%%&&&&&&****&$$+++@@@@    ....++++@@@@",
"    ....++++@@@@    ....$$%%&&&&&&****&$$+++@@@@    ....++++@@@@",
"    ....++++@@@@    ....$$%%&&&&&&&&&&&$$+++@@@@    ....++++@@@@",
"    ....++++@@@@    ....$$%%&&&&&&&&&&&$$+++@@@@    ....++++@@@@",
"####    ++++++++####    $$%%%%&&&&&&**&$$+++++++####    ++++++++",
"####    ++++++++####    $$%%%%&&&&&&**&$$+++++++####    ++++++++",
"####    ++++++++####    ++$$%%%%&&&&&&$ ++++++++####    ++++++++",
"####    ++++++++####    ++$$%%%%&&&&&&$ ++++++++####    ++++++++",
"++++@@@@    ....++++@@@@    $$%%%%%%$$@@    ....++++@@@@    ....",
"++++@@@@    ....++++@@@@    $$%%%%%%$$@@    ....++++@@@@    ....",
"++++@@@@    ....++++@@@@    $$====$$@@@@    ....++++@@@@    ....",
"++++@@@@    ....++++@@@@    $$====$$@@@@    ....++++@@@@    ....",
"++++++++####    ++++++++####$$--$$++++++####    ++++++++####    ",
"++++++++####    ++++++++##$$%%&&$$++++++####    ++++++++####    ",
"++++++++####    ++++++++##$$%%&&$$++++++####    ++++++++####    ",
"++++++++####    ++++++++##$$%%%%$$++++++####    ++++++++####    ",
"    ....++++@@@@    ....++$$%%%%$$  ....++++@@@@    ....++++@@@@",
"    ....++++@@@@    ....++++$$$$    ....++++@@@@    ....++++@@@@",
"    ....++++@@@@    ....++++$$$$    ....++++@@@@    ....++++@@@@",
"    ....++++@@@@    ....++++@@@@    ....++++@@@@    ....++++@@@@",
"####    ++++++++####    ++++++++####    ++++++++####    ++++++++",
"####    ++++++++####    ++++++++####    ++++++++####    ++++++++",
"####    ++++++++####    ++++++++####    ++++++++####    ++++++++",
"####    ++++++++####    ++++++++####    ++++++++####    ++++++++",
"++++@@@@    ....++++@@@@    ....++++@@@@    ....++++@@@@    ....",
"++++@@@@    ....++++@@@@    ....++++@@@@    ....++++@@@@    ....",
"++++@@@@    ....++++@@@@    ....++++@@@@    ....++++@@@@    ....",
"++++@@@@    ....++++@@@@    ....++++@@@@    ....++++@@@@    ....",
"++++++++####    ++++++++####    ++++++++####    ++++++++####    ",
"++++++++####    ++++++++####    ++++++++####    ++++++++####    ",
"++++++++####    ++++++++####    ++++++++####    ++++++++####    ",
"++++++++####    ++++++++####    ++++++++####    ++++++++####    "};
