/* XPM */
static char * ennemiL_xpm[] = {
"64 64 12 1",
" 	c #FED04F",
".	c #FEE761",
"+	c #FFE05B",
"@	c #FFEB75",
"#	c #FEAE34",
"$	c #382121",
"%	c #BC4D4F",
"&	c #A04345",
"*	c #4B9A27",
"=	c #FFFFFF",
"-	c #FFD7A8",
";	c #D8B78F",
"    ....++++@@@@    ....++++@@@@    ....++++@@@@    ....++++@@@@",
"    ....++++@@@@    ....++++@@@@    ....++++@@@@    ....++++@@@@",
"    ....++++@@@@    ....++++@@@@    ....++++@@@@    ....++++@@@@",
"    ....++++@@@@    ....++++@@@@    ....++++@@@@    ....++++@@@@",
"####    ++++++++####    ++++++++####    ++++++++####    ++++++++",
"####    ++++++++####    ++++++++####    ++++++++####    ++++++++",
"####    ++++++++####    ++++++++####    ++++++++####    ++++++++",
"####    ++++++++####    ++++++++####    ++++++++####    ++++++++",
"++++@@@@    ....++++@@@@    ....++++@@@@    ....++++@@@@    ....",
"++++@@@@    ....++++@@@@    ....++++@@@@    ....++++@@@@    ....",
"++++@@@@    ....++++@@@@    ....++++@@@@    ....++++@@@@    ....",
"++++@@@@    ....++++@@@@    ....++++@@@@    ....++++@@@@    ....",
"++++++++####    ++++++++####    ++++++++####    ++++++++####    ",
"++++++++####    ++++++++####    ++++++++####    ++++++++####    ",
"++++++++####    ++++++++####    ++++++++####    ++++++++####    ",
"++++++++####    ++++++++####    ++++++++####    ++++++++####    ",
"    ....++++@@@@    ....++++@@@@    ....++++@@@@    ....++++@@@@",
"    ....++++@@@@    ....++++@@@@    ....++++@@@@    ....++++@@@@",
"    ....++++@@@@    ....++++@@@@    ....++++@@@@    ....++++@@@@",
"    ....++++@@@$$$$$$$$$$$$$$$$$$$$$$$$$$$$$@@@@    ....++++@@@@",
"####    +++++++$$$$$$$$$$$$$$$$$$$$$$$$$$$$$++++####    ++++++++",
"####    +++++++$$$$$$$$$$$$$$$$$$$$$$$$$$$$$++++####    ++++++++",
"####    +++++$$%%%%%%%%%%%%%%%&&&&&&&&$$**$$$$++####    ++++++++",
"####    +++++$$%%%%%%%%%%%%%%%&&&&&&&&$$**$$$$++####    ++++++++",
"++++@@@@    .$$%%&&&&&&%%%%%&&&&&&&&&&$$$$**$$..++++@@@@    ....",
"++++@@@@    .$$%%&&&&&&%%%%%&&&&&&&&&&$$$$**$$..++++@@@@    ....",
"++++@@@@    .$$$$%%%%%%$$$%%&&==$$==&&$$**$$....++++@@@@    ....",
"++++@@@@    .$$$$%%%%%%$$$%%&&==$$==&&$$**$$....++++@@@@    ....",
"++++++++#### $$%%%%%%%%%%%%%&&==$$==&&$$$$**$$  ++++++++####    ",
"++++++++#### $$%%%%%%%%%%%%%&&==$$==&&$$$$**$$  ++++++++####    ",
"++++++++#### $$%%%%%%%%%%%%%&&==$$==&&$$$$$$$$  ++++++++####    ",
"++++++++#### $$%%%%%%%%%%%%%&&==$$==&&$$$$$$$$  ++++++++####    ",
"    ....++++@$$%%%%%%%%%%%%%&&&&&&&&&&$$$$++@@@@    ....++++@@@@",
"    ....++++@$$%%%%%%%%%%%%%&&&&&&&&&&$$$$++@@@@    ....++++@@@@",
"    ....++++@$$$$$$$$$$$$$$$&&&&&&&&$$$$&&$$$$$$$$$ ....++++@@@@",
"    ....++++@$$$$$$$$$$$$$$$&&&&&&&&$$$$&&$$$$$$$$$ ....++++@@@@",
"####    ++++++++####    ++$$--------;;&&&&&&%%%%$$$#    ++++++++",
"####    ++++++++####    ++$$--------;;&&&&&&%%%%$$$#    ++++++++",
"####    ++++++++####    ++++$$$$;;;;;;$$&&&&&&$$####    ++++++++",
"####    ++++++++####    ++++$$$$;;;;;;$$&&&&&&$$####    ++++++++",
"++++@@@@    ....++++@@@@    ..$$%%%%$$%%%%&&$$..++++@@@@    ....",
"++++@@@@    ....++++@@@@    ..$$%%%%$$%%%%&&$$..++++@@@@    ....",
"++++@@@@    ....++++@@@@    ....$$$$$$%%&&$$....++++@@@@    ....",
"++++@@@@    ....++++@@@@    ....$$$$$$%%&&$$....++++@@@@    ....",
"++++++++####    ++++++++####    ++$$$$$$$$##    ++++++++####    ",
"++++++++####    ++++++++####    ++$$$$$$$$##    ++++++++####    ",
"++++++++####    ++++++++####    ++$$$$$$$$##    ++++++++####    ",
"++++++++####    ++++++++####    ++++++++####    ++++++++####    ",
"    ....++++@@@@    ....++++@@@@    ....++++@@@@    ....++++@@@@",
"    ....++++@@@@    ....++++@@@@    ....++++@@@@    ....++++@@@@",
"    ....++++@@@@    ....++++@@@@    ....++++@@@@    ....++++@@@@",
"    ....++++@@@@    ....++++@@@@    ....++++@@@@    ....++++@@@@",
"####    ++++++++####    ++++++++####    ++++++++####    ++++++++",
"####    ++++++++####    ++++++++####    ++++++++####    ++++++++",
"####    ++++++++####    ++++++++####    ++++++++####    ++++++++",
"####    ++++++++####    ++++++++####    ++++++++####    ++++++++",
"++++@@@@    ....++++@@@@    ....++++@@@@    ....++++@@@@    ....",
"++++@@@@    ....++++@@@@    ....++++@@@@    ....++++@@@@    ....",
"++++@@@@    ....++++@@@@    ....++++@@@@    ....++++@@@@    ....",
"++++@@@@    ....++++@@@@    ....++++@@@@    ....++++@@@@    ....",
"++++++++####    ++++++++####    ++++++++####    ++++++++####    ",
"++++++++####    ++++++++####    ++++++++####    ++++++++####    ",
"++++++++####    ++++++++####    ++++++++####    ++++++++####    ",
"++++++++####    ++++++++####    ++++++++####    ++++++++####    "};
