/* XPM */
static char * ennemi_xpm[] = {
"64 64 547 2",
"  	c None",
". 	c #FED04F",
"+ 	c #FEE761",
"@ 	c #FFE05B",
"# 	c #FFEB75",
"$ 	c #FEAE34",
"% 	c #010D0D",
"& 	c #090002",
"* 	c #3C1911",
"= 	c #2F0E12",
"- 	c #110503",
"; 	c #0B1226",
"> 	c #304A61",
", 	c #040104",
"' 	c #1C0300",
") 	c #735649",
"! 	c #41271D",
"~ 	c #060702",
"{ 	c #13263F",
"] 	c #270000",
"^ 	c #D91726",
"/ 	c #DF1C25",
"( 	c #D71E24",
"_ 	c #DB272B",
": 	c #D74E43",
"< 	c #DE8770",
"[ 	c #432015",
"} 	c #050515",
"| 	c #F7A595",
"1 	c #E88E78",
"2 	c #D72226",
"3 	c #DA1E29",
"4 	c #DA1F23",
"5 	c #D52125",
"6 	c #BE2C3D",
"7 	c #000806",
"8 	c #360307",
"9 	c #D81927",
"0 	c #B42A32",
"a 	c #D62020",
"b 	c #DA1E25",
"c 	c #D6232B",
"d 	c #A33634",
"e 	c #A84741",
"f 	c #D49D87",
"g 	c #141313",
"h 	c #00081E",
"i 	c #F9BEB2",
"j 	c #EE6E62",
"k 	c #D0262F",
"l 	c #CC2326",
"m 	c #D91F25",
"n 	c #D92023",
"o 	c #DA1E27",
"p 	c #D32424",
"q 	c #D32028",
"r 	c #080D0B",
"s 	c #03020C",
"t 	c #C62C32",
"u 	c #D32630",
"v 	c #B81C23",
"w 	c #E11B25",
"x 	c #CF2523",
"y 	c #0E0004",
"z 	c #00101D",
"A 	c #000814",
"B 	c #0D0500",
"C 	c #040711",
"D 	c #080E13",
"E 	c #050208",
"F 	c #C9242C",
"G 	c #DA201F",
"H 	c #D91F27",
"I 	c #CE1F2B",
"J 	c #040204",
"K 	c #AA3B3A",
"L 	c #DF1E24",
"M 	c #DD1F24",
"N 	c #D92227",
"O 	c #DD1F26",
"P 	c #DB2024",
"Q 	c #1E0505",
"R 	c #000803",
"S 	c #5B302C",
"T 	c #2F1510",
"U 	c #0B0402",
"V 	c #000B10",
"W 	c #00192A",
"X 	c #011314",
"Y 	c #CE272D",
"Z 	c #D7221D",
"` 	c #D72027",
" .	c #D22325",
"..	c #DB2026",
"+.	c #9E3D39",
"@.	c #0C0D0B",
"#.	c #E22233",
"$.	c #D32426",
"%.	c #DA2026",
"&.	c #D82126",
"*.	c #D82224",
"=.	c #230000",
"-.	c #500D0A",
";.	c #D0242E",
">.	c #DA282B",
",.	c #DD5A52",
"'.	c #110000",
").	c #180800",
"!.	c #FD8184",
"~.	c #D0171F",
"{.	c #1B0100",
"].	c #070004",
"^.	c #D71F29",
"/.	c #CC242F",
"(.	c #D22229",
"_.	c #DA1F2C",
":.	c #0A0008",
"<.	c #2F0F0F",
"[.	c #C42D34",
"}.	c #05030B",
"|.	c #0D0604",
"1.	c #DF1E28",
"2.	c #E5675D",
"3.	c #01111E",
"4.	c #0F0E00",
"5.	c #C51A1A",
"6.	c #D21B20",
"7.	c #000000",
"8.	c #220707",
"9.	c #C9303D",
"0.	c #D52127",
"a.	c #DC1D27",
"b.	c #C9292D",
"c.	c #DA2028",
"d.	c #190005",
"e.	c #742B32",
"f.	c #DC1E23",
"g.	c #DC1E25",
"h.	c #D72224",
"i.	c #B42D34",
"j.	c #0C0E1B",
"k.	c #000A0D",
"l.	c #D8222B",
"m.	c #000003",
"n.	c #0B0308",
"o.	c #06000A",
"p.	c #090408",
"q.	c #080305",
"r.	c #00051B",
"s.	c #F58B78",
"t.	c #D1202A",
"u.	c #C43236",
"v.	c #000408",
"w.	c #050919",
"x.	c #C61C26",
"y.	c #C32634",
"z.	c #E41A25",
"A.	c #380B0A",
"B.	c #47160E",
"C.	c #B52329",
"D.	c #DD1C27",
"E.	c #D3262E",
"F.	c #090007",
"G.	c #000E13",
"H.	c #AA323F",
"I.	c #DA202A",
"J.	c #CB2A30",
"K.	c #370302",
"L.	c #00021F",
"M.	c #B4887C",
"N.	c #C23326",
"O.	c #D32627",
"P.	c #D64B4A",
"Q.	c #0B0300",
"R.	c #00131E",
"S.	c #A47661",
"T.	c #CE443C",
"U.	c #C02419",
"V.	c #FA9688",
"W.	c #030306",
"X.	c #C32922",
"Y.	c #420201",
"Z.	c #D9222B",
"`.	c #D72228",
" +	c #090000",
".+	c #05090C",
"++	c #D8202A",
"@+	c #D82128",
"#+	c #DD1E2A",
"$+	c #120000",
"%+	c #140505",
"&+	c #DA1D2D",
"*+	c #DF1E26",
"=+	c #E01C2A",
"-+	c #DB2022",
";+	c #682B26",
">+	c #D91E20",
",+	c #CC3042",
"'+	c #100000",
")+	c #0A0000",
"!+	c #D9242A",
"~+	c #D61F26",
"{+	c #D31E30",
"]+	c #DC1C2B",
"^+	c #AC3F3D",
"/+	c #0E0100",
"(+	c #C51019",
"_+	c #D8202C",
":+	c #DE222A",
"<+	c #D65459",
"[+	c #020300",
"}+	c #CF2128",
"|+	c #D82220",
"1+	c #DD2125",
"2+	c #BE3130",
"3+	c #19262B",
"4+	c #1F0001",
"5+	c #D82222",
"6+	c #DB1F28",
"7+	c #BA2829",
"8+	c #060102",
"9+	c #0A1224",
"0+	c #9A3732",
"a+	c #C0272B",
"b+	c #210000",
"c+	c #050004",
"d+	c #3C0000",
"e+	c #070100",
"f+	c #B48B89",
"g+	c #3F0300",
"h+	c #0C0000",
"i+	c #080600",
"j+	c #0A0200",
"k+	c #030000",
"l+	c #060403",
"m+	c #090705",
"n+	c #040200",
"o+	c #130002",
"p+	c #8E2D32",
"q+	c #000200",
"r+	c #B72E31",
"s+	c #922330",
"t+	c #010413",
"u+	c #000008",
"v+	c #8E2824",
"w+	c #B62725",
"x+	c #CF252C",
"y+	c #BA2B27",
"z+	c #8B3331",
"A+	c #051B2C",
"B+	c #0C0401",
"C+	c #A82D2B",
"D+	c #A92824",
"E+	c #953022",
"F+	c #360707",
"G+	c #090004",
"H+	c #B8282B",
"I+	c #E21D24",
"J+	c #A52D28",
"K+	c #131D25",
"L+	c #202727",
"M+	c #161115",
"N+	c #151513",
"O+	c #ECE7E9",
"P+	c #E8E1E1",
"Q+	c #A7A5A5",
"R+	c #454246",
"S+	c #CAC5C7",
"T+	c #12100E",
"U+	c #EBE4E7",
"V+	c #EEE7E7",
"W+	c #A79DA1",
"X+	c #030601",
"Y+	c #160000",
"Z+	c #050600",
"`+	c #070106",
" @	c #A12B28",
".@	c #953327",
"+@	c #9C2E28",
"@@	c #070609",
"#@	c #250303",
"$@	c #A12C2D",
"%@	c #9E2D26",
"&@	c #8E403F",
"*@	c #000110",
"=@	c #000817",
"-@	c #110003",
";@	c #9C2F2B",
">@	c #9F2D22",
",@	c #8E373D",
"'@	c #090205",
")@	c #F1EFF2",
"!@	c #DFDBD8",
"~@	c #EFE8E8",
"{@	c #F2EBEE",
"]@	c #989A9C",
"^@	c #E7E2E6",
"/@	c #EBE6E8",
"(@	c #FFFAFD",
"_@	c #A1A1A1",
":@	c #000E21",
"<@	c #123347",
"[@	c #330B02",
"}@	c #B52624",
"|@	c #B22822",
"1@	c #95311E",
"2@	c #1E0000",
"3@	c #000405",
"4@	c #020C17",
"5@	c #692B2E",
"6@	c #9F2E27",
"7@	c #170101",
"8@	c #140002",
"9@	c #942E29",
"0@	c #8E3329",
"a@	c #200000",
"b@	c #9B3737",
"c@	c #A03031",
"d@	c #902F29",
"e@	c #170000",
"f@	c #000809",
"g@	c #F0EEED",
"h@	c #B0ABAC",
"i@	c #948F90",
"j@	c #080401",
"k@	c #0F0003",
"l@	c #DEDCDA",
"m@	c #E9E4E5",
"n@	c #BBB6B8",
"o@	c #A9A2A4",
"p@	c #020907",
"q@	c #072435",
"r@	c #884137",
"s@	c #9F302C",
"t@	c #94291B",
"u@	c #9D3224",
"v@	c #1B0000",
"w@	c #8A2A24",
"x@	c #843830",
"y@	c #040005",
"z@	c #030401",
"A@	c #030900",
"B@	c #060307",
"C@	c #000D19",
"D@	c #0B0708",
"E@	c #030100",
"F@	c #3D4142",
"G@	c #7D1A14",
"H@	c #DD1D25",
"I@	c #130000",
"J@	c #0B0003",
"K@	c #262324",
"L@	c #0A0001",
"M@	c #DBAD9F",
"N@	c #000002",
"O@	c #011D34",
"P@	c #000310",
"Q@	c #030603",
"R@	c #160002",
"S@	c #0D0000",
"T@	c #130005",
"U@	c #AE4142",
"V@	c #D61C27",
"W@	c #CF1E27",
"X@	c #C82F40",
"Y@	c #000C0E",
"Z@	c #220500",
"`@	c #E8685A",
" #	c #C81D29",
".#	c #C63339",
"+#	c #D41224",
"@#	c #D72121",
"##	c #D52221",
"$#	c #DA1D2B",
"%#	c #D32230",
"&#	c #D22D35",
"*#	c #CB2728",
"=#	c #DE8C73",
"-#	c #010206",
";#	c #05030F",
">#	c #CF252A",
",#	c #DD2022",
"'#	c #DE1A1D",
")#	c #B03B35",
"!#	c #A43136",
"~#	c #D72025",
"{#	c #D52228",
"]#	c #CC252B",
"^#	c #050407",
"/#	c #0F0000",
"(#	c #EA7060",
"_#	c #D42120",
":#	c #DD1E28",
"<#	c #E21C26",
"[#	c #DC1D29",
"}#	c #D32C30",
"|#	c #2E0000",
"1#	c #090303",
"2#	c #580405",
"3#	c #CD9881",
"4#	c #030B13",
"5#	c #020003",
"6#	c #CD2429",
"7#	c #74261C",
"8#	c #220401",
"9#	c #D51F2F",
"0#	c #6F0E16",
"a#	c #A42C29",
"b#	c #000713",
"c#	c #00000F",
"d#	c #3C2219",
"e#	c #350709",
"f#	c #050805",
"g#	c #190000",
"h#	c #050503",
"i#	c #090703",
"j#	c #3B0000",
"k#	c #D70C1C",
"l#	c #E78D75",
"m#	c #100A06",
"n#	c #030507",
"o#	c #A0291F",
"p#	c #D71F2D",
"q#	c #B82D1F",
"r#	c #040904",
"s#	c #010612",
"t#	c #8F2F31",
"u#	c #A92929",
"v#	c #9B3E3D",
"w#	c #030505",
"x#	c #060008",
"y#	c #080008",
"z#	c #5F4038",
"A#	c #DC2626",
"B#	c #670007",
"C#	c #898C89",
"D#	c #FFFFFD",
"E#	c #FFFDFE",
"F#	c #FFFCFE",
"G#	c #F1F6F7",
"H#	c #C9CCC9",
"I#	c #535054",
"J#	c #050206",
"K#	c #B82A2D",
"L#	c #DE2831",
"M#	c #290000",
"N#	c #280400",
"O#	c #030200",
"P#	c #893239",
"Q#	c #963126",
"R#	c #260300",
"S#	c #030001",
"T#	c #913836",
"U#	c #0B0500",
"V#	c #D11D38",
"W#	c #D91C2A",
"X#	c #A02B20",
"Y#	c #08010D",
"Z#	c #CC2328",
"`#	c #6E6A69",
" $	c #3D403D",
".$	c #050505",
"+$	c #010400",
"@$	c #000201",
"#$	c #2B2B2B",
"$$	c #C8C1C4",
"%$	c #C8C8C8",
"&$	c #4C4A4B",
"*$	c #B82A31",
"=$	c #250000",
"-$	c #C82F3C",
";$	c #DB1E1E",
">$	c #641711",
",$	c #060000",
"'$	c #180104",
")$	c #113043",
"!$	c #02081B",
"~$	c #340002",
"{$	c #D9201F",
"]$	c #C72535",
"^$	c #110301",
"/$	c #7D302F",
"($	c #D42225",
"_$	c #C71920",
":$	c #7E2225",
"<$	c #0E0000",
"[$	c #010904",
"}$	c #000100",
"|$	c #020006",
"1$	c #410000",
"2$	c #D5222C",
"3$	c #DD2524",
"4$	c #400005",
"5$	c #190301",
"6$	c #882E31",
"7$	c #AB3340",
"8$	c #070201",
"9$	c #101310",
"0$	c #0F0505",
"a$	c #010511",
"b$	c #061E36",
"c$	c #1D0000",
"d$	c #7A1E24",
"e$	c #C63639",
"f$	c #D5232F",
"g$	c #D51D29",
"h$	c #D32122",
"i$	c #D52527",
"j$	c #CF2224",
"k$	c #C81F1F",
"l$	c #DF2230",
"m$	c #D61E2A",
"n$	c #D52029",
"o$	c #C7212B",
"p$	c #B74243",
"q$	c #470807",
"r$	c #000404",
"s$	c #24000B",
"t$	c #992727",
"u$	c #090100",
"v$	c #080000",
"w$	c #000503",
"x$	c #010304",
"y$	c #010101",
"z$	c #00020C",
"A$	c #160D09",
"B$	c #2E3D41",
"C$	c #6C2B31",
"D$	c #9E2621",
"E$	c #0E0302",
"F$	c #090109",
"G$	c #AB1F23",
"H$	c #3A1F1C",
"I$	c #74392F",
"J$	c #00060E",
"K$	c #771929",
"L$	c #0C0409",
"M$	c #51221E",
"N$	c #8E2E2E",
"O$	c #000714",
"P$	c #0F0104",
"Q$	c #00070D",
"R$	c #001722",
"S$	c #000A14",
"T$	c #000315",
"U$	c #08000A",
"V$	c #080D0C",
". . . . + + + + @ @ @ @ # # # # . . . . + + + + @ @ @ @ # # # # . . . . + + + + @ @ @ @ # # # # . . . . + + + + @ @ @ @ # # # # ",
". . . . + + + + @ @ @ @ # # # # . . . . + + + + @ @ @ @ # # # # . . . . + + + + @ @ @ @ # # # # . . . . + + + + @ @ @ @ # # # # ",
". . . . + + + + @ @ @ @ # # # # . . . . + + + + @ @ @ @ # # # # . . . . + + + + @ @ @ @ # # # # . . . . + + + + @ @ @ @ # # # # ",
". . . . + + + + @ @ @ @ # # # # . . . . + + + + @ @ @ @ # # # # . . . . + + + + @ @ @ @ # # # # . . . . + + + + @ @ @ @ # # # # ",
"$ $ $ $ . . . . @ @ @ @ @ @ @ @ $ $ $ $ . . . . @ @ @ @ @ @ @ @ $ $ $ $ . . . . @ @ @ @ @ @ @ @ $ $ $ $ . . . . @ @ @ @ @ @ @ @ ",
"$ $ $ $ . . . . @ @ @ @ @ @ @ @ $ $ $ $ . . . . @ @ @ @ @ @ @ @ $ $ $ $ . . . . @ @ @ @ @ @ @ @ $ $ $ $ . . . . @ @ @ @ @ @ @ @ ",
"$ $ $ $ . . . . @ @ @ @ @ @ @ @ $ $ $ $ . . . . @ @ @ @ @ @ @ @ $ $ $ $ . . . . @ @ @ @ @ @ @ @ $ $ $ $ . . . . @ @ @ @ @ @ @ @ ",
"$ $ $ $ . . . . @ @ @ @ @ @ @ @ $ $ $ $ . . . . @ @ @ @ @ @ @ @ $ $ $ $ . . . . @ @ @ @ @ @ @ @ $ $ $ $ . . . . @ @ @ @ @ @ @ @ ",
"@ @ @ @ # # # # . . . . + + + + @ @ @ @ # # # # . . . . + + + + @ @ @ @ # # # # . . . . + + + + @ @ @ @ # # # # . . . . + + + + ",
"@ @ @ @ # # # # . . . . + + + + @ @ @ @ # # # # . . . . + + + + @ @ @ @ # # # # . . . . + + + + @ @ @ @ # # # # . . . . + + + + ",
"@ @ @ @ # # # # . . . . + + + + @ @ @ @ # # # # . . . . + + + + @ @ @ @ # # # # . . . . + + + + @ @ @ @ # # # # . . . . + + + + ",
"@ @ @ @ # # # # . . . . + + + + @ @ @ @ # # # # . . . . + + + + @ @ @ @ # # # # . . . . + + + + @ @ @ @ # # # # . . . . + + + + ",
"@ @ @ @ @ @ @ @ $ $ $ $ . . . . @ @ @ @ @ @ @ @ $ $ $ $ . . . . @ @ @ @ @ @ @ @ $ $ $ $ . . . . @ @ @ @ @ @ @ @ $ $ $ $ . . . . ",
"@ @ @ @ @ @ @ @ $ $ $ $ . . . . @ @ @ @ @ @ @ @ $ $ $ $ . . . . @ @ @ @ @ @ @ @ $ $ $ $ . . . . @ @ @ @ @ @ @ @ $ $ $ $ . . . . ",
"@ @ @ @ @ @ @ @ $ $ $ $ . . . . @ @ @ @ @ @ @ @ $ $ $ $ . . . . @ @ @ @ @ @ @ @ $ $ $ $ . . . . @ @ @ @ @ @ @ @ $ $ $ $ . . . . ",
"@ @ @ @ @ @ @ @ $ $ $ $ . . . . @ @ @ @ @ @ @ @ $ $ $ $ . . . . @ @ @ @ @ @ @ @ $ $ $ $ . . . . @ @ @ @ @ @ @ @ $ $ $ $ . . . . ",
". . . . + + + + @ @ @ @ # # # # . . . . + + + + @ @ @ @ # # # # . . . . + + + + @ @ @ @ # # # # . . . . + + + + @ @ @ @ # # # # ",
". . . . + + + + @ @ @ @ % & * * = - ; . + + + + @ @ @ @ # # # # . . . . + + + + @ @ @ @ > , ' ) ! ! ~ { + + + + @ @ @ @ # # # # ",
". . . . + + + + @ @ @ ] ^ / ( ( _ : < [ + + + + @ @ @ @ # # # # . . . . + + + + @ @ } } | 1 2 3 4 4 5 6 7 + + + @ @ @ @ # # # # ",
". . . . + + + + @ 8 8 9 0 a b b c d e f g g + + @ @ @ @ # # # # . . . . + + + + @ h i i j k l m n n o p q r r + @ @ @ @ # # # # ",
"$ $ $ $ . . . . @ 8 8 9 0 a b b c d e f g g . . @ @ @ @ @ @ @ @ $ $ $ $ . . . . @ h i i j k l m n n o p q r r . @ @ @ @ @ @ @ @ ",
"$ $ $ $ . . . . s t t u v w x x y z z z . . . . @ @ @ @ @ @ @ @ $ $ $ $ . . . . @ A B B C D E F G G H n m I I J @ @ @ @ @ @ @ @ ",
"$ $ $ $ . . . . K L L M N O P P Q R S T U U . . @ @ @ @ @ @ @ @ $ $ $ $ . . . . @ @ V V , W X Y Z Z ` n  .....+.@ @ @ @ @ @ @ @ ",
"$ $ $ $ . . . @.#.$.$.%.&.*.....=.-.;.>.,.,.'.. @ @ @ @ @ @ @ @ $ $ $ $ . . . . @ ).!.!.~.{.].^.G G 5 b /.(.(._.:.@ @ @ @ @ @ @ ",
"@ @ @ @ # # # <.*.m m m &.P [.[.}.@ |.c 1.1.2.3.. . . . + + + + @ @ @ @ # # # # 4.5.6.6.7.+ + 8.9.9.0.a.b.2 2 c.d.. . . + + + + ",
"@ @ @ @ # # # e.f.5 5 g.h.i.j.j.@ k.l.m %.%.L 7.. . . m.n.o.+ + @ @ p.q.A # # r.s.t.2 2 u.v.+ + w.w.x.2 y.z.z.0.A.. . . + + + + ",
"@ @ @ @ # # # e.f.5 5 g.h.i.j.j.@ k.l.m %.%.L 7.. . . m.n.o.+ + @ @ p.q.A # # r.s.t.2 2 u.v.+ + w.w.x.2 y.z.z.0.A.. . . + + + + ",
"@ @ @ @ # # # B.C.f.f.D.&.E.F.F.@ G.H.D.I.I.J.K.L.M.M.N.O.P.Q.R.R.S.T.U.V.Q.Q.W.X.Y.Z.Z.`. ++ + .+.+++@+%.&.&.#+$+. . . + + + + ",
"@ @ @ @ @ @ @ %+&+%.%.*+=+-+;+;+@ @ Q.>+*.*.,+'+)+!+!+~+{+]+^+/+/+(+c._+:+<+<+[+}+|+1+1+2+3+. . 4+4+5+&.%.6+6+7+8+$ $ $ . . . . ",
"@ @ @ @ @ @ @ 9+0+@+@+..1.a+b+b+@ c+/.P p p d+e+f+g+g+h+i+j+k+l+l+m+n+o+'+p+p+q+r+m m m ~+s+t+. u+u+v+w+x+y+y+z+A+$ $ $ . . . . ",
"@ @ @ @ @ @ @ @ B+C+C+D+E+F+. . @ G+H+0.I+I+J+K+L+M+M+N+O+P+Q+R+R+S+T+U+V+W+W+X+Y+` m m ` 3 Z+. @ @ `+ @.@+@+@@@$ $ $ $ . . . . ",
"@ @ @ @ @ @ @ @ $ #@#@$@%@&@*@*@=@-@;@>@,@,@'@@ 7.)@)@!@~@{@]@z z ^@O+/@(@_@_@:@<@[@}@}@|@1@2@3@4@4@5@6@6@7@7@@ $ $ $ $ . . . . ",
". . . . + + + + @ #@#@$@%@&@*@*@=@-@;@>@,@,@'@+ 7.)@)@!@~@{@]@z z ^@O+/@(@_@_@:@<@[@}@}@|@1@2@3@4@4@5@6@6@7@7@+ @ @ @ @ # # # # ",
". . . . + + + + @ @ @ 8@9@0@a@a@b@c@d@e@f@f@+ + @ z z g@h@i@j@k@k@l@m@n@o@p@p@+ @ q@j@j@r@s@t@u@v@v@w@x@l++ + + @ @ @ @ # # # # ",
". . . . + + + + @ @ @ @ y@z@Q.Q.A@B@C@. + + + + @ D@D@E@F@`+G@H@H@I@J@K@L@M@M@N@@ @ @ @ O@P@Q@R@S@S@/+T@+ + + + @ @ @ @ # # # # ",
". . . . + + + + @ @ @ @ U@V@W@W@X@Y@. . + + + + Z@`@`@ #.#+#@#####$#%#&#|+*#*#=#-#@ @ @ # # ;#>#,#,#'#)#+ + + + @ @ @ @ # # # # ",
"$ $ $ $ . . . . @ @ @ @ !#~#{#{#]#^#$ $ . . . /#(#_#_#0.:#b *.h.h.<#[#}#|#1#1#2#3#4#@ @ @ @ 5#6#0.0.H 7#. . . . @ @ @ @ @ @ @ @ ",
"$ $ $ $ . . . . @ @ @ @ 8#9#0#0#a#b#$ $ c#c#d#e#f#Y+Y+g#v@I@S@l+l+h#i#1#1#1#1#j#k#l#m#m#@ @ n#o#p#p#q#r#. . . . @ @ @ @ @ @ @ @ ",
"$ $ $ $ . . . . @ @ @ @ 8#9#0#0#a#b#$ $ c#c#d#e#f#Y+Y+g#v@I@S@l+l+h#i#1#1#1#1#j#k#l#m#m#@ @ n#o#p#p#q#r#. . . . @ @ @ @ @ @ @ @ ",
"$ $ $ $ . . . . @ @ @ @ s#t#u#u#v#w#x#y#z#z#A#B#C#D#D#E#F#D#G#H#H#H#h@h@I#J#J#K#O L#)+)+M#N#O#P#Q#Q#R#$ . . . . @ @ @ @ @ @ @ @ ",
"@ @ @ @ # # # # . . . . + S#T#T#U#V#W#X#Y#Y#H@Z#b+`#`# $.$+$@$#$#$h@$$%$&$ + +^.o *$=$=$-$;$>$,$'$'$)$@ # # # # . . . . + + + + ",
"@ @ @ @ # # # # . . . . + + !$!$~${$]$^$/$/$4 ($_$:$:$<$7.[$7.7.7.}$7.|$1$2$2$m m 3$4$4$5$6$7$8$@ @ @ @ # # # # . . . . + + + + ",
"@ @ @ @ # # # # . . . . + + + + 9$0$a$@ b$b$|$c$d$e$e$f$g$h$i$j$j$k$l$m$n$o$o$p$q$& r$r$+ + + + @ @ @ @ # # # # . . . . + + + + ",
"@ @ @ @ # # # # . . . . + + + + @ @ @ @ # # s$t$u$o.o.c$v$w$x$7.7.y$7.z$'+A$A$B$C$D$E$E$+ + + + @ @ @ @ # # # # . . . . + + + + ",
"@ @ @ @ @ @ @ @ $ $ $ $ . . . . @ @ @ @ @ @ s$t$u$o.o.c$v$w$x$7.7.y$7.z$'+A$A$B$C$D$E$E$. . . . @ @ @ @ @ @ @ @ $ $ $ $ . . . . ",
"@ @ @ @ @ @ @ @ $ $ $ $ . . . . @ @ @ @ @ @ F$G$)+$ $ H$I$. . . @ @ @ J$K$L$L$@ M$N$O$O$. . . . @ @ @ @ @ @ @ @ $ $ $ $ . . . . ",
"@ @ @ @ @ @ @ @ $ $ $ $ . . . . @ @ @ @ @ @ @ P$Q$$ $ R$S$. . . @ @ @ @ T$@ @ @ U$V$$ $ . . . . @ @ @ @ @ @ @ @ $ $ $ $ . . . . ",
"@ @ @ @ @ @ @ @ $ $ $ $ . . . . @ @ @ @ @ @ @ @ $ $ $ $ . . . . @ @ @ @ @ @ @ @ $ $ $ $ . . . . @ @ @ @ @ @ @ @ $ $ $ $ . . . . ",
". . . . + + + + @ @ @ @ # # # # . . . . + + + + @ @ @ @ # # # # . . . . + + + + @ @ @ @ # # # # . . . . + + + + @ @ @ @ # # # # ",
". . . . + + + + @ @ @ @ # # # # . . . . + + + + @ @ @ @ # # # # . . . . + + + + @ @ @ @ # # # # . . . . + + + + @ @ @ @ # # # # ",
". . . . + + + + @ @ @ @ # # # # . . . . + + + + @ @ @ @ # # # # . . . . + + + + @ @ @ @ # # # # . . . . + + + + @ @ @ @ # # # # ",
". . . . + + + + @ @ @ @ # # # # . . . . + + + + @ @ @ @ # # # # . . . . + + + + @ @ @ @ # # # # . . . . + + + + @ @ @ @ # # # # ",
"$ $ $ $ . . . . @ @ @ @ @ @ @ @ $ $ $ $ . . . . @ @ @ @ @ @ @ @ $ $ $ $ . . . . @ @ @ @ @ @ @ @ $ $ $ $ . . . . @ @ @ @ @ @ @ @ ",
"$ $ $ $ . . . . @ @ @ @ @ @ @ @ $ $ $ $ . . . . @ @ @ @ @ @ @ @ $ $ $ $ . . . . @ @ @ @ @ @ @ @ $ $ $ $ . . . . @ @ @ @ @ @ @ @ ",
"$ $ $ $ . . . . @ @ @ @ @ @ @ @ $ $ $ $ . . . . @ @ @ @ @ @ @ @ $ $ $ $ . . . . @ @ @ @ @ @ @ @ $ $ $ $ . . . . @ @ @ @ @ @ @ @ ",
"$ $ $ $ . . . . @ @ @ @ @ @ @ @ $ $ $ $ . . . . @ @ @ @ @ @ @ @ $ $ $ $ . . . . @ @ @ @ @ @ @ @ $ $ $ $ . . . . @ @ @ @ @ @ @ @ ",
"@ @ @ @ # # # # . . . . + + + + @ @ @ @ # # # # . . . . + + + + @ @ @ @ # # # # . . . . + + + + @ @ @ @ # # # # . . . . + + + + ",
"@ @ @ @ # # # # . . . . + + + + @ @ @ @ # # # # . . . . + + + + @ @ @ @ # # # # . . . . + + + + @ @ @ @ # # # # . . . . + + + + ",
"@ @ @ @ # # # # . . . . + + + + @ @ @ @ # # # # . . . . + + + + @ @ @ @ # # # # . . . . + + + + @ @ @ @ # # # # . . . . + + + + ",
"@ @ @ @ # # # # . . . . + + + + @ @ @ @ # # # # . . . . + + + + @ @ @ @ # # # # . . . . + + + + @ @ @ @ # # # # . . . . + + + + ",
"@ @ @ @ @ @ @ @ $ $ $ $ . . . . @ @ @ @ @ @ @ @ $ $ $ $ . . . . @ @ @ @ @ @ @ @ $ $ $ $ . . . . @ @ @ @ @ @ @ @ $ $ $ $ . . . . ",
"@ @ @ @ @ @ @ @ $ $ $ $ . . . . @ @ @ @ @ @ @ @ $ $ $ $ . . . . @ @ @ @ @ @ @ @ $ $ $ $ . . . . @ @ @ @ @ @ @ @ $ $ $ $ . . . . ",
"@ @ @ @ @ @ @ @ $ $ $ $ . . . . @ @ @ @ @ @ @ @ $ $ $ $ . . . . @ @ @ @ @ @ @ @ $ $ $ $ . . . . @ @ @ @ @ @ @ @ $ $ $ $ . . . . ",
"@ @ @ @ @ @ @ @ $ $ $ $ . . . . @ @ @ @ @ @ @ @ $ $ $ $ . . . . @ @ @ @ @ @ @ @ $ $ $ $ . . . . @ @ @ @ @ @ @ @ $ $ $ $ . . . . "};
