/* XPM */
static char * exit_xpm[] = {
"64 64 149 2",
"  	c None",
". 	c #804037",
"+ 	c #3E2731",
"@ 	c #AC9B9A",
"# 	c #CCCCCC",
"$ 	c #CAC9C9",
"% 	c #8B8688",
"& 	c #BFBEBE",
"* 	c #C0BFBF",
"= 	c #BCBBBB",
"- 	c #514349",
"; 	c #C1C1C1",
"> 	c #C1C0C0",
", 	c #C4C3C3",
"' 	c #C7C7C7",
") 	c #C8C8C8",
"! 	c #C5C4C4",
"~ 	c #CACACA",
"{ 	c #733E39",
"] 	c #CBCBCB",
"^ 	c #BDBDBD",
"/ 	c #9E9E9E",
"( 	c #BCBCBC",
"_ 	c #C2C2C2",
": 	c #C4C4C4",
"< 	c #C8C7C7",
"[ 	c #C9C9C9",
"} 	c #C6C6C6",
"| 	c #BABABA",
"1 	c #A9A9A9",
"2 	c #A6A6A6",
"3 	c #7B514E",
"4 	c #B8B8B8",
"5 	c #C5C5C5",
"6 	c #9C8B8A",
"7 	c #B3AEAA",
"8 	c #754D2D",
"9 	c #998575",
"0 	c #A0A0A0",
"a 	c #9D8B7D",
"b 	c #7E6048",
"c 	c #7C5B41",
"d 	c #BFBFBF",
"e 	c #B6B6B6",
"f 	c #999999",
"g 	c #835A35",
"h 	c #FFFFFF",
"i 	c #8E6945",
"j 	c #8C6239",
"k 	c #865D36",
"l 	c #937E69",
"m 	c #F9F9F9",
"n 	c #825934",
"o 	c #775234",
"p 	c #979492",
"q 	c #795436",
"r 	c #815B39",
"s 	c #815833",
"t 	c #8A6E54",
"u 	c #DFDFDF",
"v 	c #A4A4A4",
"w 	c #A79B9A",
"x 	c #876951",
"y 	c #836A56",
"z 	c #895F38",
"A 	c #855B35",
"B 	c #928B85",
"C 	c #A1A1A1",
"D 	c #8E8177",
"E 	c #8D653F",
"F 	c #877363",
"G 	c #B5B5B5",
"H 	c #B9B9B9",
"I 	c #B1AFAF",
"J 	c #AFAFAF",
"K 	c #787274",
"L 	c #79512F",
"M 	c #7B5230",
"N 	c #947E6C",
"O 	c #B7B7B7",
"P 	c #B4A9A8",
"Q 	c #9E8770",
"R 	c #CAC2BA",
"S 	c #ACACAC",
"T 	c #A19286",
"U 	c #7F5632",
"V 	c #907962",
"W 	c #885E37",
"X 	c #9C9793",
"Y 	c #B8B5B3",
"Z 	c #8B6138",
"` 	c #7E5532",
" .	c #764E2E",
"..	c #78502F",
"+.	c #C6C5C5",
"@.	c #90867E",
"#.	c #8E6C4B",
"$.	c #89786A",
"%.	c #93816F",
"&.	c #978F87",
"*.	c #684A32",
"=.	c #7C5D3E",
"-.	c #74553A",
";.	c #6F5137",
">.	c #6B4D35",
",.	c #795A3D",
"'.	c #78593C",
").	c #424242",
"!.	c #4D4D4D",
"~.	c #E9E9E9",
"{.	c #D9D9D9",
"].	c #6D6D6D",
"^.	c #9C9C9C",
"/.	c #FCFCFC",
"(.	c #5D5D5D",
"_.	c #7D7D7D",
":.	c #656565",
"<.	c #757575",
"[.	c #B3B3B3",
"}.	c #C3C2C2",
"|.	c #7C5431",
"1.	c #977D63",
"2.	c #B5A89B",
"3.	c #91775D",
"4.	c #A29588",
"5.	c #B2B2B2",
"6.	c #989693",
"7.	c #795132",
"8.	c #8B613A",
"9.	c #B1B1B1",
"0.	c #916A4B",
"a.	c #D2D2D2",
"b.	c #555555",
"c.	c #B4B4B4",
"d.	c #ECECEC",
"e.	c #CFCFCF",
"f.	c #F5F5F5",
"g.	c #F2F2F2",
"h.	c #6B4B31",
"i.	c #5F4937",
"j.	c #B0B0B0",
"k.	c #9F8A76",
"l.	c #7D5536",
"m.	c #8C6448",
"n.	c #8F6644",
"o.	c #875D38",
"p.	c #845D3F",
"q.	c #967A5D",
"r.	c #ADADAD",
". . . . . . . . . . . . + + + + . . @ # # # # $ # # # # # # # # # # # # # # # # # # # # # % + + . . . . . . . . . . . . . . . . ",
". . . . . . . . . . . . + + + # # # # # # # # & # # # # # # # # # # # # & # # # # # # # # # # * = . . . . . . . . . . . . . . . ",
". . . . . . . . . . . . - # # = # # # # # # # & ; # # # # # # # # # # ; > # # # # # , ' # # # * ) # # . . . . . . . . . . . . . ",
". . . . . . . . . . . # # # # = # # & & # # # & & # # # & # # ) & & ! # # # # # ~ & & # # # # * # # # # # . . . . . . . . . . . ",
"{ { { { { { { { . # # # # # # = # > & ] # # # # # # ^ / / ( ( ( ( ( ( ( ( _ # # # # # # # # # : # # # # # # < { { { { { { { { { ",
"{ { { { { { { { # # # # # # # [ # # # # # # } ( ( ( ( | 1 ( ( ( ( / 2 / ( ( ( ( ( # # # # # # # # # # ) # # # # { { { { { { { { ",
"{ { { { { { 3 # # # # # # # # # # # # # ( / | ( ( 4 ( ( ( ( ( ( ( ( / ( ( ( ( ( ( ( ( ( # # # # # # # 5 = ] # # # { { { { { { { ",
"{ { { { { 6 # # # = [ # # # # # # [ ( ( ( / / ( ( ( 7 8 8 8 8 8 8 8 8 8 9 ( ( ( ( ( 2 0 ( ( # # # # # # # # ~ ] # # { { { { { { ",
"{ { { { { # # # } # # # # # # # ( ( ( ( ( | | a 8 8 8 b 8 8 8 8 8 8 8 8 c 8 8 8 ( ( ( ( ( ( ( d # # # # # # # # # # # { { { { { ",
"{ { { { # # # # # # # # # # # ( / e ( ( ( 8 8 f 8 8 g h i j k j j j j l m n 8 o p 8 q ( ( ( ( 1 / # # # # # # # # # # # { { { { ",
"{ { { # # # # # # # # # # ^ / / ( ( ( 8 8 8 8 m r 8 j n j j k j j j j j s j 8 t u 8 8 8 q ( ( ( 1 / v # # # # [ ! # # # w { { { ",
"{ { { # # # } # # # # # ^ / / ( ( x 8 f y z j j s 8 j j j j j j j j j j j j 8 k j j A B f 8 ( ( ( | / C # # # # & # # # # { { { ",
"+ + # # # # ) # # # # ( / 1 ( ( 8 8 8 D j j j j s 8 j j j j j j j j j j z j 8 k j j j E F 8 8 8 ( ( ( 0 / # # # # _ # # # # + + ",
"+ + # # # # # # # # 5 / G ( ( 8 8 8 8 8 j j j j s 8 j j 8 j j j j j j j 8 j 8 k j j j j 8 8 8 8 8 ( ( ( 2 # # # # # # # # # + + ",
"+ # & # # # # # # # ( / ( ( 8 f H j s 8 j j j j s 8 j j 8 j j j j j j j 8 j 8 k j j j j 8 z j } f 8 ( ( ( / # # # # # # # # I + ",
"+ # & # # # # # # ( 0 ( ( 8 8 8 j j j 8 j j j j s 8 j j j j j j j j j j 8 j 8 k j j j j 8 j j j 8 8 8 ( ( | J # # # # # # # & + ",
"K # & # # # # # ( ( ( ( 8 8 8 j j j j 8 j L j j s 8 j j j j j j 8 8 M j j j 8 k j j j j 8 j j j j 8 8 8 ( ( ( _ # # # # # # & . ",
"# # & # # # # # ( ( ( 8 f c 8 j j j j L j j j j s 8 j j j j j j j j j j j j 8 k j j j j n j j j j 8 F f N ( / O # # # # # # & P ",
"# # & # # # ) O ( ( ( 8 f Q 8 j j j j j j j j j s 8 j j j j n 8 j j j j j j 8 k j 8 j j j j j j j 8 R f 8 ( ( ( S & # # # # & # ",
"# # & # # # # ( ( ( 8 8 M j 8 j j j j j j j j j s 8 j j j j j j j j j j j j 8 k j j j j j j j j j 8 j 8 8 T ( ( ( # # # # # & # ",
"# # & # # # ; | / ( 8 8 j j 8 j j j j j j j j j s 8 j j j j j M j j j j 8 U 8 k j j j j j j j j j 8 j j 8 8 ( ( / ) ! # # # & # ",
"# # & # # # ( ( ( q f V j j 8 j j j j j j j j W M 8 A j j j j j j j j j j j 8 8 8 j j j j j j j j 8 j j X f Y ( ( ( # # & # & # ",
"# # & # # # ( ( ( 8 8 j j j 8 j j j j j j j j j s 8 j j j j Z ` 8 M j j j j 8 k j j U 8 8 8 Z j j 8 j j j 8 8 ( ( ( # & # # & # ",
"# # & # # # ( 4 ( 8 8 j j j 8 j j j j j j j j j s 8 j j j j j j j j j j j j 8 k j j j ` j j j  .j 8 j n j 8 8 ( ( ( # & ) # & # ",
"# # _ # & # / ( x 8 U j s j 8 j ..j j j j U j j s 8 j j j j j j j j j j j j 8 k j j j M j j M j j 8 j ..j  .8 ( ( ( # # & # & # ",
"# # +.# # : / ( 8 @.#.j U j 8 j 8 j j j z j j j s 8 j j j j j j j j j j j j 8 k j j j ` j j  .j j 8 j 8 j l $.x ( ( # # > # & # ",
"# # ) # _ : / ( 8 f %.j j j 8 j j j j j j j j j s 8 j j j j M j j ` j j j j 8 k j j j j j j j j j 8 j k j &.p 8 ( ( # # # ] ; # ",
"# # [ # _ : / ( 8 8 j j j j M j j j j k j j j j s 8 j j j j n j j M j j j j 8 k j j j j s j j j j 8 j j j j 8 8 ( ( # # # ' _ # ",
"# # # # & : / ( *.8 =.=.=.=.-.=.=.=.=.;.=.=.=.=.-.>.=.=.=.,.j j j k =.=.=.=.>.'.=.=.=.=.>.=.=.=.=.>.=.=.=.=.8 *.( ( # # # # +.# ",
"# # # [ > : / ( ).!.!.!.!.!.!.!.!.!.!.!.!.!.!.!.!.!.!.!.!.!.!.j j !.!.!.!.!.!.!.!.!.!.!.!.!.!.!.!.!.!.!.!.!.!.).( ( # # # # [ # ",
"# # # ~ [ : / ( ).!.!.!.!.!.!.!.!.!.!.!.!.!.!.!.!.!.!.!.!.!.!.j j !.!.!.!.!.!.!.!.!.!.!.!.!.!.!.!.!.!.!.!.!.!.).( ( # # # # # # ",
"# # # # # : / ( ).!.!.# h ~.!.!.!.!.# h h !.!.!.!.# {.h ].!.!.j j !.!.^.h # # !.!.!.!.h h # !.!.!.!./.h # !.!.).( ( # # # # # # ",
"# # # # # : / ( ).!.!.# # # !.!.!.!.# # # !.!.!.!.# # # : !.!.j j !.!.# # # # !.!.!.!.# # # !.!.!.!.# # # !.!.).( ( # # # # # # ",
"# # # # # : / | ).!.!.# # (.!.!.!.!._.# : !.!.!.!.!.# # !.!.!.j j !.!.!.# # !.!.!.!.!.# # :.!.!.!.!.<.# : !.!.).( ( # # # # # # ",
"# # # # # : / [.).).!.!.!.!.!.!.!.!.!.!.!.!.!.!.!.!.!.!.!.!.!.j j !.!.!.!.!.!.!.!.!.!.!.!.!.!.!.!.!.!.!.!.!.).).( [.# }.# # # # ",
"# # # # & : / ( ).).).).).).).).).).).).).).).).).).).).).). .j j 8 ).).).).).).).).).).).).).).).).).).).).).).( ( # & # # # # ",
"# # # # & : / ( 8 |.j j j j j j j j j j j j j j s 8 j j j j j j j j j j j j 8 k j j j j k j j j j j j j j j 8 8 ( ( # & # # # # ",
"# # # # # : / ( 8 f 1.j j j j j j j j j j j j j s 8 j j j j j j j j j j j j 8 k j j j j j j j j j j j j j 2.f 8 ( ( # # ! # # # ",
"# # # # # : / ( 8 j j j j j j j j j j j j j j j s 8 j j j j j j j j j j j j 8 k j j j j j j j j j j j j j j j 8 ( ( # # [ # # # ",
"# # # # # : ( ( 8 j j j j j j j j j j j j j j j s 8 j j j j s M M s j j j j 8 k j j j j j j j j j j j j j j j 8 ( ( # # # # # # ",
"# # # # # : ( ( 8 f 3.j j j j j 8 j j j j j j j s 8 j j j j j j j j j j j j 8 k j j j j j j j j j j j j j 4.f 8 ( 4 # # # # # # ",
"# # # # # : ( ( 8 j j j j j j j j j j j j j j j s 8 j k j j j j j j j j j j 8 k j j j j j j j j j j j j j j j 8 ( ( # # # # # # ",
"# # +.[ # 5.| ( 8 j j j j j j j j j j j j j s 8 8 8 j |.j j j j j j j j j j 8 8 8 s j j M U z  .j j j j j j j 8 ( ( & # # # # # ",
"# # # # > : ( ( 8 j j j  .j j j j j j j j j s L s 8 j  .j j j j j j j j j j 8 k j j j j j j j 8 j j j j j j j 8 ( e # & # # # # ",
"# # # # # : ( ( 8 f j j j j j j 8 8 j j j j j j s 8 j j n j j j j j j j j j 8 k j j j j j j j j j j j j j #.f 8 ( 0 # # # # # # ",
"# # # # # : ( ( 8 f j j j j j j j j j j j j j j s 8 j j j j z j j j j j j j 8 k j j j j j j z j j j j j j j 6.8 ( ( # # # # # # ",
"# # # # # : / ( 8 j j j j j j j j j j j j j j j s 8 j j j j j j j j j j j j 8 k j j j j j j 8 j j j j j j j j 8 ( ( # # # # # # ",
"# # # # # : / ( 8 f j j j j 7.j j j j j j j j j s 8 j j j j j j j j j j j j 8 k j j 8.j j j j z j j j j j E f 8 G ( # # # # # # ",
"# & & _ [ : 9.( 8 f j j j j 8 j j j g j j j j z s 8 U j j j j j j j j j j |.8 k j j 0.j j j j j j j ` j j E f 8 2 ( # # ) > & & ",
"# # # # # : ( ( 8 8 j j j j 8 j j j 8 j j j j 8 s 8 j j j j j j j j j j j j 8 k j j 0.j j j j j j j U j j j 8 8 e ( # # # # # # ",
"# # # # # : ( ( ).!.!.!.!.!.!.!.!.!.!.!.!.!.!.!.!.!.!.!.!.!.!.j j !.!.!.!.!.!.!.!.!.!.!.!.!.!.!.!.!.!.!.!.!.!.).( ( # # # # # # ",
"# # # # # : ( ( ).!.!.!.!.!.!.!.!.!.!.!.!.!.!.!.!.!.!.!.!.!.!.j j !.!.!.!.!.!.!.!.!.!.!.!.!.!.!.!.!.!.!.!.!.!.).( ( ] # # # # # ",
"# # # # # : ( ( ).!.!.# h {.!.!.!.!.# h h !.!.!.!.# a.h b.!.!.j j !.!.].h # c.!.!.!.!.h h # !.!.!.!.d.h # !.!.).( ( # # # # # # ",
"# # # ; # : ( ( ).!.!.# m ~.!.!.!.!.# e.h !.!.!.!.# # h # !.!.j j !.!.# h # # !.!.!.!.h # # !.!.!.!.f.g.# !.!.).( ( # # # _ # # ",
"# # # * & : / ( ).!.!.# # # !.!.!.!.# # # !.!.!.!.^.# # !.!.!.j j !.!.!.# # ].!.!.!.!.# # # !.!.!.!.# # # !.!.).( ( # # & +.# # ",
"# # # # # : ( ( ).).!.!.!.!.!.!.!.!.!.!.!.!.!.!.!.!.!.!.!.!.!.j j !.!.!.!.!.!.!.!.!.!.!.!.!.!.!.!.!.!.!.!.!.).).( ( # # # # # # ",
"# # # # # : ( ( ).).).).).).).).).).).).).).).).).).).).).).h.j j i.).).).).).).).).).).).).).).).).).).).).).).( ( # # # # # # ",
"# # # # ; j./ ( 8 j j j j j j j j j k j j j j j s 8 j j j k L 8 8 M k j j j 8 k j j j j j j k j j j j j j j j 8 ( ( # # # # # # ",
"# # # # # : ( ( 8 f i j j j j j j j j j j j j j s 8 j j j j j j j j j j j j 8 k j j j j j j j j j j j j j k.f 8 ( ( # # # # # # ",
"# # # # # : ( ( 8 f j j s 8 8 l.j j j j j j j j s 8 j j j j j j j j j j j j 8 k j j j j j j j j j j j j j #.f 8 ( ( # [ # # # # ",
"# # # # # : ( ( 8 j j j m.m.m.j j j j j j j j j s 8 j j j j j s s j j j j j 8 k j n.8 8 8 j j j j o.j j j j j 8 ( ( # & # # # # ",
"# # # # # : ( ( 8 f E j j j j j j p.j j j j j j s 8 j j j j j j j j j j j j 8 k j j j j j j j j j M j j j q.f 8 ( | # & # # # # ",
"# # # _ # : r.( 8 f o j j j j j j 8 j j j j j j s 8 j j j j j j j j j j j j 8 k j j j j j j j j j M j j j b f 8 ( 2 # & # # # # ",
"# # # & # : r.( 8 8 8 8 8 8 8 8 8 8 8 8 8 8 8 8 8 8 8 8 8 8 8 8 8 8 8 8 8 8 8 8 8 8 8 8 8 8 8 8 8 8 8 8 8 8 8 8 ( 2 # & # # # # "};
