/* XPM */
static char * exit2_xpm[] = {
"64 64 225 2",
"  	c None",
". 	c #804037",
"+ 	c #3E2731",
"@ 	c #B0A2A1",
"# 	c #CCCCCC",
"$ 	c #CBCBCB",
"% 	c #A29FA0",
"& 	c #8B8688",
"* 	c #C8C8C8",
"= 	c #BFBEBE",
"- 	c #C4C4C4",
"; 	c #BCBBBB",
"> 	c #A28B89",
", 	c #514349",
"' 	c #C4C3C3",
") 	c #C2C2C2",
"! 	c #C9C9C9",
"~ 	c #86534D",
"{ 	c #8D615D",
"] 	c #CACACA",
"^ 	c #C1C1C1",
"/ 	c #CAC9C9",
"( 	c #733E39",
"_ 	c #BCBCBC",
": 	c #9E9E9E",
"< 	c #BEBDBD",
"[ 	c #C6C6C6",
"} 	c #BABABA",
"| 	c #A2A2A2",
"1 	c #A6A6A6",
"2 	c #ADADAD",
"3 	c #B5B5B5",
"4 	c #83605E",
"5 	c #C1BFBC",
"6 	c #F8E6B7",
"7 	c #FFEBB6",
"8 	c #E6A385",
"9 	c #A0A0A0",
"0 	c #F2986A",
"a 	c #F29669",
"b 	c #B1B1B1",
"c 	c #FACE9B",
"d 	c #F85F41",
"e 	c #F67853",
"f 	c #C7C7C7",
"g 	c #C5C4C4",
"h 	c #BFBFBF",
"i 	c #CBC6BB",
"j 	c #F4875D",
"k 	c #F76D4B",
"l 	c #FBD09D",
"m 	c #C0BFBF",
"n 	c #FFEEBF",
"o 	c #FFF2D1",
"p 	c #F7BEA0",
"q 	c #F58059",
"r 	c #A9A9A9",
"s 	c #AFAEAE",
"t 	c #F9A992",
"u 	c #FFEDBC",
"v 	c #B3B3B3",
"w 	c #A5A3A3",
"x 	c #FFEBB7",
"y 	c #FFE9B4",
"z 	c #FAD9A9",
"A 	c #FFEFC6",
"B 	c #FB815E",
"C 	c #FCE7C8",
"D 	c #FCE6C6",
"E 	c #FA7251",
"F 	c #F95E41",
"G 	c #FBE8B6",
"H 	c #FADCAF",
"I 	c #FFF1CB",
"J 	c #FFF2CF",
"K 	c #FFF1CD",
"L 	c #FFF0C9",
"M 	c #FFEDBD",
"N 	c #E99A6A",
"O 	c #E5895A",
"P 	c #FEE8B3",
"Q 	c #ACABAB",
"R 	c #C5C5C5",
"S 	c #C6C5C5",
"T 	c #FDE4B1",
"U 	c #FBDDAC",
"V 	c #FCDFAA",
"W 	c #F7816D",
"X 	c #EDA876",
"Y 	c #FCE8C8",
"Z 	c #A4A4A4",
"` 	c #F7826E",
" .	c #FAC99F",
"..	c #FFE9B5",
"+.	c #FFF0CA",
"@.	c #CEC4B7",
"#.	c #F89A7E",
"$.	c #ECA473",
"%.	c #FFECBA",
"&.	c #D0C6BA",
"*.	c #F9B590",
"=.	c #F47660",
"-.	c #F2B887",
";.	c #F8A283",
">.	c #EC5C43",
",.	c #FACBA0",
"'.	c #E99667",
").	c #E6462A",
"!.	c #ED5E46",
"~.	c #7F438D",
"{.	c #F67E6A",
"].	c #E94D32",
"^.	c #F06951",
"/.	c #E7885D",
"(.	c #8B4B87",
"_.	c #E68A5B",
":.	c #F7806C",
"<.	c #EA543A",
"[.	c #F2715B",
"}.	c #F6826C",
"|.	c #EB573D",
"1.	c #F8957A",
"2.	c #F89379",
"3.	c #EF634B",
"4.	c #874989",
"5.	c #E68D5E",
"6.	c #F9B691",
"7.	c #F57C68",
"8.	c #F16A53",
"9.	c #85478A",
"0.	c #C87569",
"a.	c #E6895B",
"b.	c #F57A65",
"c.	c #E95238",
"d.	c #F7806D",
"e.	c #DF2B0C",
"f.	c #F6816C",
"g.	c #C3C2C2",
"h.	c #EE6049",
"i.	c #E33C1F",
"j.	c #F8D3A4",
"k.	c #E3391C",
"l.	c #CF7B64",
"m.	c #8D4C87",
"n.	c #F47862",
"o.	c #C64C37",
"p.	c #C06F6D",
"q.	c #D57E62",
"r.	c #F4826A",
"s.	c #E0865C",
"t.	c #E54023",
"u.	c #E7482C",
"v.	c #F26F58",
"w.	c #B9B9B9",
"x.	c #EEAB7C",
"y.	c #DD8968",
"z.	c #E9996A",
"A.	c #E13011",
"B.	c #D56A49",
"C.	c #E4895A",
"D.	c #EB563D",
"E.	c #DD7950",
"F.	c #BC6D6E",
"G.	c #E87B56",
"H.	c #EC664F",
"I.	c #D65F5C",
"J.	c #F6806B",
"K.	c #F47661",
"L.	c #834388",
"M.	c #EB664E",
"N.	c #894A88",
"O.	c #E6462B",
"P.	c #E7895B",
"Q.	c #9E597E",
"R.	c #82438C",
"S.	c #EB654D",
"T.	c #EB644C",
"U.	c #E87351",
"V.	c #D05C41",
"W.	c #EB634C",
"X.	c #CD5A5E",
"Y.	c #AD5171",
"Z.	c #EB634B",
"`.	c #D1533D",
" +	c #CD513B",
".+	c #D25C5A",
"++	c #B2526E",
"@+	c #9F4D79",
"#+	c #EB624A",
"$+	c #9B4B7C",
"%+	c #E4604E",
"&+	c #81448C",
"*+	c #EA664C",
"=+	c #E87452",
"-+	c #AFAFAF",
";+	c #B95469",
">+	c #E6614D",
",+	c #81438C",
"'+	c #AA4F73",
")+	c #B85369",
"!+	c #EB6249",
"~+	c #C44661",
"{+	c #BC4666",
"]+	c #E05A4F",
"^+	c #EB6148",
"/+	c #EB6048",
"(+	c #903C69",
"_+	c #873F7B",
":+	c #CB4A5D",
"<+	c #B2516D",
"[+	c #EB6047",
"}+	c #C34560",
"|+	c #AD456E",
"1+	c #EB5F47",
"2+	c #B8B8B8",
"3+	c #EB5F46",
"4+	c #C3445F",
"5+	c #E55A49",
"6+	c #EA5E45",
"7+	c #C2445F",
"8+	c #EA5D45",
"9+	c #C9485B",
"0+	c #C2435E",
"a+	c #EA5C44",
"b+	c #C1425D",
". . . . . . . . . . . . + + + + . . @ # # # # $ # # # # # # # # # # # # # # # # # # # # # % + + . . . . . . . . . . . . . . . . ",
". . . . . . . . . . . . + + & * # # # # # # # = # # # # # # # # # # # # = $ # # # # # # # # # - ; > . . . . . . . . . . . . . . ",
". . . . . . . . . . . . , # * ; # # # # # # # = = # # # # # # # # # # ' ) ! # # # # ' = # # # - ; # # ~ . . . . . . . . . . . . ",
". . . . . . . . . . { # # # # ; # # = = # # # = = # # # = # # ] = = ^ # # # # # # = = / # # # - # # # # # { . . . . . . . . . . ",
"( ( ( ( ( . . . . # # # # # # ; # ' = # # # # # # $ _ : : _ _ _ _ _ _ _ _ _ # # # # # # # # # * # # # # # # # . . . . . . ( ( ( ",
"( ( ( ( ( . . . { # # # # # # < # # # # # # [ _ _ _ _ } | _ _ _ _ 1 2 : _ _ _ _ _ ! # # # # # # # # # * # # # # . . . . ( ( ( ( ",
"( ( ( ( ( . . # # # # # # # # # # # # ] _ : 3 _ _ _ _ _ _ _ _ _ _ _ : _ _ _ _ _ _ _ _ _ $ # # # # # # * ; < # # # . . + ( ( ( ( ",
"( ( ( ( ( 4 # # # ; # # # # # # # ] _ _ _ : : _ _ _ 5 6 7 7 7 7 7 7 7 7 8 _ _ _ _ _ 9 : _ _ # # # # # # # # # = # # . . ( ( ( ( ",
"( ( ( ( ( # # # # # # # # # # # _ _ _ _ _ _ _ 5 7 7 7 7 7 7 7 7 7 7 7 7 0 0 0 a _ _ _ _ _ _ _ _ # # # # # # # # # # # 4 ( ( ( ( ",
"( ( ( ( # # # # # # # # # # [ } : b _ _ _ 7 7 7 7 7 7 7 7 7 7 7 7 7 7 7 c 0 0 d 0 e 0 _ _ _ _ b : f # # # # # ^ # # # # ( ( ( ( ",
"( ( ( # # # g # # # # # # _ : : _ _ _ 7 7 7 7 7 7 7 7 7 7 7 7 7 7 7 7 7 c 0 0 d 0 e 0 0 7 _ _ _ _ : : # # # # # = # # # # ( ( ( ",
"( ( 4 # # # = # # # # # h : : _ _ i 7 7 7 7 7 7 7 7 7 7 7 7 7 7 7 7 7 7 7 0 0 j k 0 0 l 7 7 5 _ _ _ : : # # # # * m # # # 4 ( ( ",
"+ + # # # # = # # # # _ : } _ _ 7 7 7 7 7 7 7 7 7 7 7 7 7 7 7 7 7 7 7 n o p p q 0 0 0 7 7 7 7 7 _ _ _ r : # # # # # # # # # + + ",
"+ s g # # # [ # # # _ : 2 _ _ 7 7 7 7 7 7 7 7 7 7 7 7 7 7 7 7 7 7 7 7 o o o p t p p u 7 7 7 7 7 7 _ _ _ v : # # # # # # # # w + ",
"+ # = # # # # # # $ _ : _ _ x 7 y z z z z z z z 7 7 7 7 7 7 7 7 A o o o 7 7 7 B 7 7 7 7 7 7 7 7 7 7 _ _ _ : ] # # # # # # # = + ",
"+ # = # # # # # # _ : _ _ 7 7 C C C C D z z z z z 7 7 7 7 x o o o o o 7 7 7 7 E 7 7 7 7 7 7 7 7 7 7 7 _ _ _ : # # # # # # # = + ",
"# # = # # # # # _ _ _ _ 7 7 z z z z z z C C C C C C o o o o o o o o 7 7 7 7 7 F 7 7 7 7 7 7 7 7 7 7 7 7 _ _ _ _ # # # # # # = # ",
"# # = # # # # * _ _ _ G 7 z z z z z z z z z z z z H I J K L M 7 7 7 7 7 7 7 N O O O P 7 7 7 7 7 7 7 7 7 6 _ 1 Q R # # # # # = # ",
"# # = # # # S 3 _ _ _ 7 z z z z z z z z z z z z z z T 7 7 7 7 7 7 7 7 7 O O O O O O O O 7 7 7 7 7 7 7 7 7 _ _ _ b = # # # # = # ",
"# # = # # # # _ _ _ 7 U z z z z z z z z z z z z z z z 7 7 7 7 7 7 7 V O O O O O O O O O O 7 7 7 7 7 7 7 7 z _ _ _ $ # # # # = # ",
"# # = # # # _ 1 : _ z z z z z z z z z z W W W W z z z z 7 7 7 7 O O O O O O O O O O O O O X 7 7 7 7 7 Y C C _ _ : Z / # # # = # ",
"# # ) # # # _ _ _ z z z z z z z z z ` W W W W W W  .z z ..7 7 7 O O O O O O O O O O O O O O 7 7 7 +.o C C C C _ _ _ # # = ! ) # ",
"# # g # # # _ _ _ z z z z z z z z z ` W W W W W W  .z z ..7 7 7 O O O O O O O O O O O O O O 7 7 7 +.o C C C C _ _ _ # = # # S # ",
"# # * # # # _ _ @.z z z z z z z z #.W W W W W W W W z z z 7 7 7 O O O O O O O O O O O O O O $.o K %.7 z z z z &._ _ # # = # ! # ",
"# # ! # = # : _ z z z z z z z z *.W W W W W W W W W z z z 7 7 O O O O O O O O O O O O O O O O 7 7 7 z z z z z z _ _ # # = # # # ",
"# # # # # # : _ z z z z z z z z W W W W W =.W W W W W z z z -.O O O O O O O O O O O O O O O O 7 7 7 z z z z z z _ _ * # # ] # # ",
"# # # # # * : _ z z z z z z z ;.W W W W W >.W W W W W ,.z z O O O O O O O O O O O O O O O O O '.7 z z z z z z z _ _ - # # m # # ",
"# # # # # * : _ z z z z z z z W W W W W W ).W W !.W W W z O O ~.~.O O O O O O O O O O O O O O O z z z z z z z z _ _ - # # # # # ",
"# # # $ ! * : _ z z z z z z z W {.W W W W ].W ^.W W W W /.O (.~.~.~.O O O O O O O O O O O O O O _.z z z z z z z _ _ - # # # # # ",
"# # # = / * : _ z z z z z z z W W :.W W W <.[.W W W W W }.O ~.~.~.~.~.O O O O O O O O O O O O O O z z z z z z z _ _ - # # # # # ",
"# # # ) # * : _ z z z z z z z W W W W W W |.W W W W W W W ~.~.~.~.~.~.O O O O O O O O O O O O O O z z 1.W W 2.z _ _ - # # # # # ",
"# # # S # * : _ z z z z z z z W W W W W W 3.W W W W W W W O 4.~.~.O O O O O O O O O O O O O O O O 5.6.W W W W W _ _ - # S # # # ",
"# # # ! # * : _ z z z z z z z W W W W W 7.8.W W W W W W W O O ~.~.~.~.~.9.0.O O O O O O O O O O O a.W W W W W W _ _ - # S # # # ",
"# # # # # * : 1 z z z z z z z W W W W W W b.W W c.W W ~.~.~.~.~.~.~.~.~.~.~.O O O O O O O O O O W W W W W W W W _ | - # S # # # ",
"# # # # # * : _ z z z z z z z W W W W W W b.W W c.W W ~.~.~.~.~.~.~.~.~.~.~.O O O O O O O O O O W W W W W W W W _ _ - # S # # # ",
"# # # # ^ * 1 _ z z z z z z z W W W W W W d.W e.W W W ~.~.~.~.~.~.~.~.~.~.~.~.O O O O O O O O O W W W W W W W W _ _ - ! S # # ! ",
"# ! # # m * 2 _ z z z z z z z z W W W W W W e.W W W W ~.~.~.~.~.~.~.~.~.~.~.~.O O O O O O O O f.W W W W W W W d._ _ - g.' # # ! ",
"# ! # # # * 2 _ z z z z z z z z W W W W W W h.W W W W ~.~.~.~.~.~.~.~.~.~.~.~.O O O O O O O O W W W W W W W i.W _ _ - # = # # [ ",
"# ] # # # * 3 _ z z z z z z j.z z W W W W W k.W W W a.~.~.~.~.l.~.~.~.O O m.~.O O O O O O O O W W W n.W W W W W _ _ - # # # # ] ",
"# # # # # * _ _ z z z z z z o.z z z W W W W e.W W W O ~.~.p.O ~.~.~.~.~.q.O O O O O O O O O O W W W W W :.W W W _ _ - # # # # # ",
"# # # # # * _ _ z z z z z o.o.o.z z z W W W e.W W r.O s.O O ~.~.~.~.~.~.~.~.O O O O O O O O O W W W W t.u.W W W _ _ - # # # # # ",
"# # # # # * _ _ z z z z o.o.o.o.o.z z z O O e.O O O O O ~.~.~.~.~.~.~.~.~.~.~.O O O O O O O O W W W W W e.W v.W _ _ - # # # # # ",
"# # ) ] # w._ _ z z z z o.o.o.o.o.z z O O O e.O O O O ~.~.~.~.~.~.~.~.~.~.~.~.~.O O O O O O O O W W W W e.W W W _ _ s # # # # # ",
"# # # # S * _ _ O O x.z o.y.o.o.o.z.O O O O e.O O O O ~.~.~.~.~.~.~.~.~.~.~.~.~.O O O O O O O O W W W W A.W W W _ : - ) / # # # ",
"# # # # # * _ _ O O O O B.o.o.o.O O O O O O e.O O O O ~.~.~.~.C.~.~.~.~.~.O O O O O O O O O O O O W W W D.W W W _ : - # # # # # ",
"# # # # # * _ _ O O O E.o.o.o.o.o.O O O O O e.O O O O F.G.H.I.~.~.~.~.~.~.~.~.O O O O O O O O O O O W J.K.W W W _ : - # # # # # ",
"# # # # # * 3 _ O O O E.o.o.o.o.o.O O O O O e.O O O O F.G.H.I.~.~.~.~.~.~.~.~.O O O O O O O O O O O W J.K.W W W _ 2 - # # # # # ",
"# # # # # * 2 _ O O O o.o.o.o.o.o.o.O O O O L.O O O M.M.M.~.~.~.~.~.~.~.~.~.~.~.N.O O O O O O O O O O O.W W P.O _ _ - # # # # # ",
"# = = ^ / * 1 _ O O O o.o.o.o.o.o.o.O Q.O R.S.S.S.S.S.~.~.~.~.~.~.~.~.~.~.~.~.~.~.O O O O O O O O O O e.O O O O _ _ - # ] ^ = = ",
"# # # # # * b _ O O O o.o.o.o.o.o.o.O ~.T.~.T.T.T.T.T.~.~.~.~.~.~.~.~.~.~.~.~.~.~.T.O O O O O O O O O e.O O O O _ _ - # # # # # ",
"# # # # # * _ _ T.T.T.U.O o.o.V.T.T.T.~.T.~.T.W.W.X.W.~.~.~.~.~.~.~.~.Y.W.W.W.W.W.W.W.W.O O O O O O O e.O O O O _ _ - # # # # # ",
"# # # # # * } _ Z.Z.Z.`.o.o.o.o.o. +Z.~.~..+Z.Z.~.Z.Z.~.++Z.Z.Z.~.~.~.~.~.~.~.@+Z.Z.Z.Z.Z.O O O O O O e.O O O O _ _ ) # # # # # ",
"# # # # # * _ _ #+#+#+#+#+#+#+#+#+~.#+~.~.#+$+~.#+#+#+#+#+%+~.~.~.~.~.~.~.~.~.&+#+#+#+#+#+#+#+#+#+*+=+#+#+#+#+#+_ _ - # # # # # ",
"# # # = # * -+_ #+#+#+#+#+#+#+#+#+;+>+~.~.~.~.#+,+~.#+'+~.~.~.~.~.~.~.~.~.)+#+#+#+#+#+#+#+#+#+#+#+#+#+#+#+#+!+!+_ _ - # # m # # ",
"# # # = f * : _ ~+~+~+~+~+~+~+~+~+~+~.~.~.~.~.~.{+~+~+~+~+]+^+^+^+^+~./+/+/+/+/+/+/+/+/+/+/+/+/+/+/+/+/+/+/+/+/+_ _ - # ! = # # ",
"# # # # # * _ _ ~+~+~+~+~+~+~+~+~+~+(+_+~.~.~.~+~+~+~+~+~+~+~+~+:+/+~.<+/+/+/+/+/+/+/+/+/+[+[+[+[+[+[+[+[+[+[+[+_ _ - # # # # # ",
"# # # # # * _ _ }+}+}+}+}+}+}+}+}+}+}+}+}+}+}+}+}+}+}+}+}+}+}+}+}+}+}+|+1+1+1+1+1+1+1+1+1+1+1+1+1+1+1+1+1+1+1+1+_ _ - # # # # # ",
"# # # $ ^ 2+: _ }+}+}+}+}+}+}+}+}+}+}+}+}+}+}+}+}+}+}+}+}+}+}+}+}+}+}+}+}+}+3+3+3+3+3+3+3+3+3+3+3+3+3+3+3+3+3+3+_ _ - # ! # # # ",
"# # # # # * _ _ }+}+}+}+}+}+}+}+}+}+}+}+}+}+}+}+}+}+}+}+}+}+}+}+}+}+}+}+}+}+3+3+3+3+3+3+3+3+3+3+3+3+3+3+3+3+3+3+_ _ - # ! # # # ",
"# # # # # * _ _ 4+4+4+4+4+4+4+4+4+4+4+4+4+4+4+4+4+4+4+4+4+4+4+4+4+4+4+4+4+4+4+5+6+6+6+6+6+6+6+6+6+6+6+6+6+6+6+6+_ _ - # ! # # # ",
"# # # # # * _ _ 7+7+7+7+7+7+7+7+7+7+7+7+7+7+7+7+7+7+7+7+7+7+7+7+7+7+7+7+7+7+7+7+7+8+8+8+8+8+8+8+8+8+8+9+7+7+7+7+_ _ - # ! # # # ",
"# # # # # * r _ 0+0+0+0+0+0+0+0+0+0+0+0+0+0+0+0+0+0+0+0+0+0+0+0+0+0+0+0+0+0+0+0+0+0+0+0+a+a+a+0+0+0+0+0+0+0+0+0+_ : - S ! # # # ",
"# # # ] # * : _ b+b+b+b+b+b+b+b+b+b+b+b+b+b+b+b+b+b+b+b+b+b+b+b+b+b+b+b+b+b+b+b+b+b+b+b+b+b+b+b+b+b+b+b+b+b+b+b+_ v - S ! # # # ",
"# # # ! # * : _ b+b+b+b+b+b+b+b+b+b+b+b+b+b+b+b+b+b+b+b+b+b+b+b+b+b+b+b+b+b+b+b+b+b+b+b+b+b+b+b+b+b+b+b+b+b+b+b+_ 3 - S ! # # # "};
