/* XPM */
static char * floor_xpm[] = {
"64 64 5 1",
" 	c #FED04F",
".	c #FEE761",
"+	c #FFE05B",
"@	c #FFEB75",
"#	c #FEAE34",
"    ....++++@@@@    ....++++@@@@    ....++++@@@@    ....++++@@@@",
"    ....++++@@@@    ....++++@@@@    ....++++@@@@    ....++++@@@@",
"    ....++++@@@@    ....++++@@@@    ....++++@@@@    ....++++@@@@",
"    ....++++@@@@    ....++++@@@@    ....++++@@@@    ....++++@@@@",
"####    ++++++++####    ++++++++####    ++++++++####    ++++++++",
"####    ++++++++####    ++++++++####    ++++++++####    ++++++++",
"####    ++++++++####    ++++++++####    ++++++++####    ++++++++",
"####    ++++++++####    ++++++++####    ++++++++####    ++++++++",
"++++@@@@    ....++++@@@@    ....++++@@@@    ....++++@@@@    ....",
"++++@@@@    ....++++@@@@    ....++++@@@@    ....++++@@@@    ....",
"++++@@@@    ....++++@@@@    ....++++@@@@    ....++++@@@@    ....",
"++++@@@@    ....++++@@@@    ....++++@@@@    ....++++@@@@    ....",
"++++++++####    ++++++++####    ++++++++####    ++++++++####    ",
"++++++++####    ++++++++####    ++++++++####    ++++++++####    ",
"++++++++####    ++++++++####    ++++++++####    ++++++++####    ",
"++++++++####    ++++++++####    ++++++++####    ++++++++####    ",
"    ....++++@@@@    ....++++@@@@    ....++++@@@@    ....++++@@@@",
"    ....++++@@@@    ....++++@@@@    ....++++@@@@    ....++++@@@@",
"    ....++++@@@@    ....++++@@@@    ....++++@@@@    ....++++@@@@",
"    ....++++@@@@    ....++++@@@@    ....++++@@@@    ....++++@@@@",
"####    ++++++++####    ++++++++####    ++++++++####    ++++++++",
"####    ++++++++####    ++++++++####    ++++++++####    ++++++++",
"####    ++++++++####    ++++++++####    ++++++++####    ++++++++",
"####    ++++++++####    ++++++++####    ++++++++####    ++++++++",
"++++@@@@    ....++++@@@@    ....++++@@@@    ....++++@@@@    ....",
"++++@@@@    ....++++@@@@    ....++++@@@@    ....++++@@@@    ....",
"++++@@@@    ....++++@@@@    ....++++@@@@    ....++++@@@@    ....",
"++++@@@@    ....++++@@@@    ....++++@@@@    ....++++@@@@    ....",
"++++++++####    ++++++++####    ++++++++####    ++++++++####    ",
"++++++++####    ++++++++####    ++++++++####    ++++++++####    ",
"++++++++####    ++++++++####    ++++++++####    ++++++++####    ",
"++++++++####    ++++++++####    ++++++++####    ++++++++####    ",
"    ....++++@@@@    ....++++@@@@    ....++++@@@@    ....++++@@@@",
"    ....++++@@@@    ....++++@@@@    ....++++@@@@    ....++++@@@@",
"    ....++++@@@@    ....++++@@@@    ....++++@@@@    ....++++@@@@",
"    ....++++@@@@    ....++++@@@@    ....++++@@@@    ....++++@@@@",
"####    ++++++++####    ++++++++####    ++++++++####    ++++++++",
"####    ++++++++####    ++++++++####    ++++++++####    ++++++++",
"####    ++++++++####    ++++++++####    ++++++++####    ++++++++",
"####    ++++++++####    ++++++++####    ++++++++####    ++++++++",
"++++@@@@    ....++++@@@@    ....++++@@@@    ....++++@@@@    ....",
"++++@@@@    ....++++@@@@    ....++++@@@@    ....++++@@@@    ....",
"++++@@@@    ....++++@@@@    ....++++@@@@    ....++++@@@@    ....",
"++++@@@@    ....++++@@@@    ....++++@@@@    ....++++@@@@    ....",
"++++++++####    ++++++++####    ++++++++####    ++++++++####    ",
"++++++++####    ++++++++####    ++++++++####    ++++++++####    ",
"++++++++####    ++++++++####    ++++++++####    ++++++++####    ",
"++++++++####    ++++++++####    ++++++++####    ++++++++####    ",
"    ....++++@@@@    ....++++@@@@    ....++++@@@@    ....++++@@@@",
"    ....++++@@@@    ....++++@@@@    ....++++@@@@    ....++++@@@@",
"    ....++++@@@@    ....++++@@@@    ....++++@@@@    ....++++@@@@",
"    ....++++@@@@    ....++++@@@@    ....++++@@@@    ....++++@@@@",
"####    ++++++++####    ++++++++####    ++++++++####    ++++++++",
"####    ++++++++####    ++++++++####    ++++++++####    ++++++++",
"####    ++++++++####    ++++++++####    ++++++++####    ++++++++",
"####    ++++++++####    ++++++++####    ++++++++####    ++++++++",
"++++@@@@    ....++++@@@@    ....++++@@@@    ....++++@@@@    ....",
"++++@@@@    ....++++@@@@    ....++++@@@@    ....++++@@@@    ....",
"++++@@@@    ....++++@@@@    ....++++@@@@    ....++++@@@@    ....",
"++++@@@@    ....++++@@@@    ....++++@@@@    ....++++@@@@    ....",
"++++++++####    ++++++++####    ++++++++####    ++++++++####    ",
"++++++++####    ++++++++####    ++++++++####    ++++++++####    ",
"++++++++####    ++++++++####    ++++++++####    ++++++++####    ",
"++++++++####    ++++++++####    ++++++++####    ++++++++####    "};
