/* XPM */
static char * Mur_xpm[] = {
"64 64 4 1",
" 	c None",
".	c #804037",
"+	c #3E2731",
"@	c #733E39",
"............++++............................++++................",
"............++++............................++++................",
"............++++............................++++................",
"............++++............................++++................",
"@@@@@@@@....++++@@@@@@@@@@@@@@@@@@@@@@@@....++++@@@@@@@@@@@@@@@@",
"@@@@@@@@....++++@@@@@@@@@@@@@@@@@@@@@@@@....++++@@@@@@@@@@@@@@@@",
"@@@@@@@@....++++@@@@@@@@@@@@@@@@@@@@@@@@....++++@@@@@@@@@@@@@@@@",
"@@@@@@@@....++++@@@@@@@@@@@@@@@@@@@@@@@@....++++@@@@@@@@@@@@@@@@",
"@@@@@@@@....++++@@@@@@@@@@@@@@@@@@@@@@@@....++++@@@@@@@@@@@@@@@@",
"@@@@@@@@....++++@@@@@@@@@@@@@@@@@@@@@@@@....++++@@@@@@@@@@@@@@@@",
"@@@@@@@@....++++@@@@@@@@@@@@@@@@@@@@@@@@....++++@@@@@@@@@@@@@@@@",
"@@@@@@@@....++++@@@@@@@@@@@@@@@@@@@@@@@@....++++@@@@@@@@@@@@@@@@",
"++++++++++++++++++++++++++++++++++++++++++++++++++++++++++++++++",
"++++++++++++++++++++++++++++++++++++++++++++++++++++++++++++++++",
"++++++++++++++++++++++++++++++++++++++++++++++++++++++++++++++++",
"++++++++++++++++++++++++++++++++++++++++++++++++++++++++++++++++",
"++++............................++++............................",
"++++............................++++............................",
"++++............................++++............................",
"++++............................++++............................",
"++++@@@@@@@@@@@@@@@@@@@@@@@@....++++@@@@@@@@@@@@@@@@@@@@@@@@....",
"++++@@@@@@@@@@@@@@@@@@@@@@@@....++++@@@@@@@@@@@@@@@@@@@@@@@@....",
"++++@@@@@@@@@@@@@@@@@@@@@@@@....++++@@@@@@@@@@@@@@@@@@@@@@@@....",
"++++@@@@@@@@@@@@@@@@@@@@@@@@....++++@@@@@@@@@@@@@@@@@@@@@@@@....",
"++++@@@@@@@@@@@@@@@@@@@@@@@@....++++@@@@@@@@@@@@@@@@@@@@@@@@....",
"++++@@@@@@@@@@@@@@@@@@@@@@@@....++++@@@@@@@@@@@@@@@@@@@@@@@@....",
"++++@@@@@@@@@@@@@@@@@@@@@@@@....++++@@@@@@@@@@@@@@@@@@@@@@@@....",
"++++@@@@@@@@@@@@@@@@@@@@@@@@....++++@@@@@@@@@@@@@@@@@@@@@@@@....",
"++++++++++++++++++++++++++++++++++++++++++++++++++++++++++++++++",
"++++++++++++++++++++++++++++++++++++++++++++++++++++++++++++++++",
"++++++++++++++++++++++++++++++++++++++++++++++++++++++++++++++++",
"++++++++++++++++++++++++++++++++++++++++++++++++++++++++++++++++",
"............++++............................++++................",
"............++++............................++++................",
"............++++............................++++................",
"............++++............................++++................",
"@@@@@@@@....++++@@@@@@@@@@@@@@@@@@@@@@@@....++++@@@@@@@@@@@@@@@@",
"@@@@@@@@....++++@@@@@@@@@@@@@@@@@@@@@@@@....++++@@@@@@@@@@@@@@@@",
"@@@@@@@@....++++@@@@@@@@@@@@@@@@@@@@@@@@....++++@@@@@@@@@@@@@@@@",
"@@@@@@@@....++++@@@@@@@@@@@@@@@@@@@@@@@@....++++@@@@@@@@@@@@@@@@",
"@@@@@@@@....++++@@@@@@@@@@@@@@@@@@@@@@@@....++++@@@@@@@@@@@@@@@@",
"@@@@@@@@....++++@@@@@@@@@@@@@@@@@@@@@@@@....++++@@@@@@@@@@@@@@@@",
"@@@@@@@@....++++@@@@@@@@@@@@@@@@@@@@@@@@....++++@@@@@@@@@@@@@@@@",
"@@@@@@@@....++++@@@@@@@@@@@@@@@@@@@@@@@@....++++@@@@@@@@@@@@@@@@",
"++++++++++++++++++++++++++++++++++++++++++++++++++++++++++++++++",
"++++++++++++++++++++++++++++++++++++++++++++++++++++++++++++++++",
"++++++++++++++++++++++++++++++++++++++++++++++++++++++++++++++++",
"++++++++++++++++++++++++++++++++++++++++++++++++++++++++++++++++",
"++++............................++++............................",
"++++............................++++............................",
"++++............................++++............................",
"++++............................++++............................",
"++++@@@@@@@@@@@@@@@@@@@@@@@@....++++@@@@@@@@@@@@@@@@@@@@@@@@....",
"++++@@@@@@@@@@@@@@@@@@@@@@@@....++++@@@@@@@@@@@@@@@@@@@@@@@@....",
"++++@@@@@@@@@@@@@@@@@@@@@@@@....++++@@@@@@@@@@@@@@@@@@@@@@@@....",
"++++@@@@@@@@@@@@@@@@@@@@@@@@....++++@@@@@@@@@@@@@@@@@@@@@@@@....",
"++++@@@@@@@@@@@@@@@@@@@@@@@@....++++@@@@@@@@@@@@@@@@@@@@@@@@....",
"++++@@@@@@@@@@@@@@@@@@@@@@@@....++++@@@@@@@@@@@@@@@@@@@@@@@@....",
"++++@@@@@@@@@@@@@@@@@@@@@@@@....++++@@@@@@@@@@@@@@@@@@@@@@@@....",
"++++@@@@@@@@@@@@@@@@@@@@@@@@....++++@@@@@@@@@@@@@@@@@@@@@@@@....",
"++++++++++++++++++++++++++++++++++++++++++++++++++++++++++++++++",
"++++++++++++++++++++++++++++++++++++++++++++++++++++++++++++++++",
"++++++++++++++++++++++++++++++++++++++++++++++++++++++++++++++++",
"++++++++++++++++++++++++++++++++++++++++++++++++++++++++++++++++"};
