/* XPM */
static char * sword_xpm[] = {
"64 64 19 1",
" 	c None",
".	c #FED04F",
"+	c #FEE761",
"@	c #FFE05B",
"#	c #FFEB75",
"$	c #FEAE34",
"%	c #17111A",
"&	c #FFFFFF",
"*	c #DBD5D7",
"=	c #ADA1A4",
"-	c #B6AAAD",
";	c #87797B",
">	c #6C201E",
",	c #D36C55",
"'	c #994941",
")	c #783B38",
"!	c #E4A783",
"~	c #767277",
"{	c #B7B5B8",
"....++++@@@@####....++++@@@@####....++++@@@@####....++++@@@@####",
"....++++@@@@####....++++@@@@####....++++@@@@####....++++@@@@####",
"....++++@@@@####....++++@@@@####....++++@@@@####....++++@@@@####",
"....++++@@@@####....++++@@@@####....++++@@@@####....++++@@@@####",
"$$$$....@@@@@@@@$$$$....@@@@@@@@$$$$....@@@@@@@@$$$$....@@@@@@@@",
"$$$$....@@@@@@@@$$$$....@@@@@@@@$$$$....@@@@@@@@$$$$....@@@@@@@@",
"$$$$....@@@@@@@@$$$$....@@@@@@@@$$$$....@@@@@@@@$$$$....@@@@@@@@",
"$$$$....@@@@@@@@$$$$....@@@@@@@@$$$$....@@@@@@@@$$$$....@@@@@@@@",
"@@@@####....++++@@@@####....++++@@@@####....++++@@@@####....++++",
"@@@@####....++++@@@@####....++++@@@@####....++++@@@@####....++++",
"@@@@####....++++@@@@####....++++@@@@####....++++@@@@####....++++",
"@@@@####....++++@@@@####....++++@@@@####....++++@@@@####....++++",
"@@@@@@@@$$$$....@@@@@@@@$$$$....@@@@@@@@$$$$....@@@@@@@@$$$$....",
"@@@@@@@@$$$$....@@@@@@@@$$$$....@@@@@@@@$$$$....@@@@@@@@$$$$....",
"@@@@@@@@$$$$....@@@@@@@@$$$$....@@@@@@@@$$$$....@@@@@@@@$$$$....",
"@@@@@@@@$$$$....@@@@@@@@$$$$....@@@@@@@@$$$$....@@@@@@@@$$$$....",
"....++++@@@@####....++++@@@@####....++++@@@@####....++++@@@@####",
"....++++@@@@####....++++@@@@####....++++@@@@####....++++@@@@####",
"....++++@@@@####....++++@@@@####....++++@@@@####....++++@@@@####",
"....++++@@@@####....++++@@@@####....++++%%%%####....++++@@@@####",
"$$$$....@@@@@@@@$$$$....@@@@@@@@$$$$...%&&&%@@@@$$$$....@@@@@@@@",
"$$$$....@@@@@@@@$$$$....@@@@@@@@$$$$..%*&**%@@@@$$$$....@@@@@@@@",
"$$$$....@@@@@@@@$$$$....@@@@@@@@$$$$.%*&===%@@@@$$$$....@@@@@@@@",
"$$$$....@@@@@@@@$$$$....@@@@@@@@$$$$%*&=-;%@@@@@$$$$....@@@@@@@@",
"@@@@####....++++@@@@####....++++@@@%*&=-;%..++++@@@@####....++++",
"@@@@####....++++@@@@####....++++@@%*&=-;%...++++@@@@####....++++",
"@@@@####....++++@@@@####....++++@%*&=-;%....++++@@@@####....++++",
"@@@@####....++++@@@@####....++++%*&=-;%#....++++@@@@####....++++",
"@@@@@@@@$$$$....@@@@@@@@$$$$...%*&=-;%@@$$$$....@@@@@@@@$$$$....",
"@@@@@@@@$$$$....@@@@@@@@$$$$..%*&=-;%@@@$$$$....@@@@@@@@$$$$....",
"@@@@@@@@$$$$....@@@@@@@@$$$$.%*&=-;%@@@@$$$$....@@@@@@@@$$$$....",
"@@@@@@@@$$$$....@@@@@@@@$$$$%*&=-;%@@@@@$$$$....@@@@@@@@$$$$....",
"....++++@@@@####....++%%@@@%*&=-;%..++++@@@@####....++++@@@@####",
"....++++@@@@####....+%>,%@%*&=-;%...++++@@@@####....++++@@@@####",
"....++++@@@@####....+%,,,%*&=-;%....++++@@@@####....++++@@@@####",
"....++++@@@@####....++%,',)=-;%#....++++@@@@####....++++@@@@####",
"$$$$....@@@@@@@@$$$$...%''');%@@$$$$....@@@@@@@@$$$$....@@@@@@@@",
"$$$$....@@@@@@@@$$$$...%>!''%@@@$$$$....@@@@@@@@$$$$....@@@@@@@@",
"$$$$....@@@@@@@@$$$$..%~)>'''%@@$$$$....@@@@@@@@$$$$....@@@@@@@@",
"$$$$....@@@@@@@@$$$$.%{{~%%)')%@$$$$....@@@@@@@@$$$$....@@@@@@@@",
"@@@@####....++++@@@@%{{~%..%)>%+@@@@####....++++@@@@####....++++",
"@@@@####....++++@@@%,~~%....%%++@@@@####....++++@@@@####....++++",
"@@@@####....++++@@@%>'%#....++++@@@@####....++++@@@@####....++++",
"@@@@####....++++@@@%%%##....++++@@@@####....++++@@@@####....++++",
"@@@@@@@@$$$$....@@@@@@@@$$$$....@@@@@@@@$$$$....@@@@@@@@$$$$....",
"@@@@@@@@$$$$....@@@@@@@@$$$$....@@@@@@@@$$$$....@@@@@@@@$$$$....",
"@@@@@@@@$$$$....@@@@@@@@$$$$....@@@@@@@@$$$$....@@@@@@@@$$$$....",
"@@@@@@@@$$$$....@@@@@@@@$$$$....@@@@@@@@$$$$....@@@@@@@@$$$$....",
"....++++@@@@####....++++@@@@####....++++@@@@####....++++@@@@####",
"....++++@@@@####....++++@@@@####....++++@@@@####....++++@@@@####",
"....++++@@@@####....++++@@@@####....++++@@@@####....++++@@@@####",
"....++++@@@@####....++++@@@@####....++++@@@@####....++++@@@@####",
"$$$$....@@@@@@@@$$$$....@@@@@@@@$$$$....@@@@@@@@$$$$....@@@@@@@@",
"$$$$....@@@@@@@@$$$$....@@@@@@@@$$$$....@@@@@@@@$$$$....@@@@@@@@",
"$$$$....@@@@@@@@$$$$....@@@@@@@@$$$$....@@@@@@@@$$$$....@@@@@@@@",
"$$$$....@@@@@@@@$$$$....@@@@@@@@$$$$....@@@@@@@@$$$$....@@@@@@@@",
"@@@@####....++++@@@@####....++++@@@@####....++++@@@@####....++++",
"@@@@####....++++@@@@####....++++@@@@####....++++@@@@####....++++",
"@@@@####....++++@@@@####....++++@@@@####....++++@@@@####....++++",
"@@@@####....++++@@@@####....++++@@@@####....++++@@@@####....++++",
"@@@@@@@@$$$$....@@@@@@@@$$$$....@@@@@@@@$$$$....@@@@@@@@$$$$....",
"@@@@@@@@$$$$....@@@@@@@@$$$$....@@@@@@@@$$$$....@@@@@@@@$$$$....",
"@@@@@@@@$$$$....@@@@@@@@$$$$....@@@@@@@@$$$$....@@@@@@@@$$$$....",
"@@@@@@@@$$$$....@@@@@@@@$$$$....@@@@@@@@$$$$....@@@@@@@@$$$$...."};
