/* XPM */
static char * Untitled_xpm[] = {
"50 32 553 2",
"  	c None",
". 	c #010D0D",
"+ 	c #090002",
"@ 	c #3C1911",
"# 	c #2F0E12",
"$ 	c #110503",
"% 	c #0B1226",
"& 	c #304A61",
"* 	c #040104",
"= 	c #1C0300",
"- 	c #735649",
"; 	c #41271D",
"> 	c #060702",
", 	c #13263F",
"' 	c #270000",
") 	c #D91726",
"! 	c #DF1C25",
"~ 	c #D71E24",
"{ 	c #DB272B",
"] 	c #D74E43",
"^ 	c #DE8770",
"/ 	c #432015",
"( 	c #050515",
"_ 	c #F7A595",
": 	c #E88E78",
"< 	c #D72226",
"[ 	c #DA1E29",
"} 	c #DA1F23",
"| 	c #D52125",
"1 	c #BE2C3D",
"2 	c #000806",
"3 	c #360307",
"4 	c #D81927",
"5 	c #B42A32",
"6 	c #D62020",
"7 	c #DA1E25",
"8 	c #D6232B",
"9 	c #A33634",
"0 	c #A84741",
"a 	c #D49D87",
"b 	c #141313",
"c 	c #00081E",
"d 	c #F9BEB2",
"e 	c #EE6E62",
"f 	c #D0262F",
"g 	c #CC2326",
"h 	c #D91F25",
"i 	c #D92023",
"j 	c #DA1E27",
"k 	c #D32424",
"l 	c #D32028",
"m 	c #080D0B",
"n 	c #03020C",
"o 	c #C62C32",
"p 	c #D32630",
"q 	c #B81C23",
"r 	c #E11B25",
"s 	c #CF2523",
"t 	c #0E0004",
"u 	c #00101D",
"v 	c #000814",
"w 	c #0D0500",
"x 	c #040711",
"y 	c #080E13",
"z 	c #050208",
"A 	c #C9242C",
"B 	c #DA201F",
"C 	c #D91F27",
"D 	c #CE1F2B",
"E 	c #040204",
"F 	c #AA3B3A",
"G 	c #DF1E24",
"H 	c #DD1F24",
"I 	c #D92227",
"J 	c #DD1F26",
"K 	c #DB2024",
"L 	c #1E0505",
"M 	c #000803",
"N 	c #5B302C",
"O 	c #2F1510",
"P 	c #0B0402",
"Q 	c #000B10",
"R 	c #00192A",
"S 	c #011314",
"T 	c #CE272D",
"U 	c #D7221D",
"V 	c #D72027",
"W 	c #D22325",
"X 	c #DB2026",
"Y 	c #9E3D39",
"Z 	c #0C0D0B",
"` 	c #E22233",
" .	c #D32426",
"..	c #DA2026",
"+.	c #D82126",
"@.	c #D82224",
"#.	c #230000",
"$.	c #500D0A",
"%.	c #D0242E",
"&.	c #DA282B",
"*.	c #DD5A52",
"=.	c #110000",
"-.	c #180800",
";.	c #FD8184",
">.	c #D0171F",
",.	c #1B0100",
"'.	c #070004",
").	c #D71F29",
"!.	c #CC242F",
"~.	c #D22229",
"{.	c #DA1F2C",
"].	c #0A0008",
"^.	c #2F0F0F",
"/.	c #C42D34",
"(.	c #05030B",
"_.	c #0D0604",
":.	c #DF1E28",
"<.	c #E5675D",
"[.	c #01111E",
"}.	c #0F0E00",
"|.	c #C51A1A",
"1.	c #D21B20",
"2.	c #000000",
"3.	c #220707",
"4.	c #C9303D",
"5.	c #D52127",
"6.	c #DC1D27",
"7.	c #C9292D",
"8.	c #DA2028",
"9.	c #190005",
"0.	c #742B32",
"a.	c #DC1E23",
"b.	c #DC1E25",
"c.	c #D72224",
"d.	c #B42D34",
"e.	c #0C0E1B",
"f.	c #000A0D",
"g.	c #D8222B",
"h.	c #1C3A55",
"i.	c #000003",
"j.	c #0B0308",
"k.	c #06000A",
"l.	c #0B2E49",
"m.	c #090408",
"n.	c #080305",
"o.	c #00051B",
"p.	c #F58B78",
"q.	c #D1202A",
"r.	c #C43236",
"s.	c #000408",
"t.	c #050919",
"u.	c #C61C26",
"v.	c #C32634",
"w.	c #E41A25",
"x.	c #380B0A",
"y.	c #47160E",
"z.	c #B52329",
"A.	c #DD1C27",
"B.	c #D3262E",
"C.	c #090007",
"D.	c #000E13",
"E.	c #AA323F",
"F.	c #DA202A",
"G.	c #CB2A30",
"H.	c #370302",
"I.	c #00021F",
"J.	c #B4887C",
"K.	c #C23326",
"L.	c #D32627",
"M.	c #D64B4A",
"N.	c #0B0300",
"O.	c #00131E",
"P.	c #A47661",
"Q.	c #CE443C",
"R.	c #C02419",
"S.	c #FA9688",
"T.	c #030306",
"U.	c #C32922",
"V.	c #420201",
"W.	c #D9222B",
"X.	c #D72228",
"Y.	c #090000",
"Z.	c #05090C",
"`.	c #D8202A",
" +	c #D82128",
".+	c #DD1E2A",
"++	c #120000",
"@+	c #140505",
"#+	c #DA1D2D",
"$+	c #DF1E26",
"%+	c #E01C2A",
"&+	c #DB2022",
"*+	c #682B26",
"=+	c #D91E20",
"-+	c #CC3042",
";+	c #100000",
">+	c #0A0000",
",+	c #D9242A",
"'+	c #D61F26",
")+	c #D31E30",
"!+	c #DC1C2B",
"~+	c #AC3F3D",
"{+	c #0E0100",
"]+	c #C51019",
"^+	c #D8202C",
"/+	c #DE222A",
"(+	c #D65459",
"_+	c #020300",
":+	c #CF2128",
"<+	c #D82220",
"[+	c #DD2125",
"}+	c #BE3130",
"|+	c #19262B",
"1+	c #1F0001",
"2+	c #D82222",
"3+	c #DB1F28",
"4+	c #BA2829",
"5+	c #060102",
"6+	c #0A1224",
"7+	c #9A3732",
"8+	c #C0272B",
"9+	c #210000",
"0+	c #050004",
"a+	c #3C0000",
"b+	c #070100",
"c+	c #B48B89",
"d+	c #3F0300",
"e+	c #0C0000",
"f+	c #080600",
"g+	c #0A0200",
"h+	c #030000",
"i+	c #060403",
"j+	c #090705",
"k+	c #040200",
"l+	c #130002",
"m+	c #8E2D32",
"n+	c #000200",
"o+	c #B72E31",
"p+	c #922330",
"q+	c #010413",
"r+	c #000008",
"s+	c #8E2824",
"t+	c #B62725",
"u+	c #CF252C",
"v+	c #BA2B27",
"w+	c #8B3331",
"x+	c #051B2C",
"y+	c #0C0401",
"z+	c #A82D2B",
"A+	c #A92824",
"B+	c #953022",
"C+	c #360707",
"D+	c #090004",
"E+	c #B8282B",
"F+	c #E21D24",
"G+	c #A52D28",
"H+	c #131D25",
"I+	c #202727",
"J+	c #161115",
"K+	c #151513",
"L+	c #ECE7E9",
"M+	c #E8E1E1",
"N+	c #A7A5A5",
"O+	c #454246",
"P+	c #CAC5C7",
"Q+	c #12100E",
"R+	c #EBE4E7",
"S+	c #EEE7E7",
"T+	c #A79DA1",
"U+	c #030601",
"V+	c #160000",
"W+	c #050600",
"X+	c #070106",
"Y+	c #A12B28",
"Z+	c #953327",
"`+	c #9C2E28",
" @	c #070609",
".@	c #250303",
"+@	c #A12C2D",
"@@	c #9E2D26",
"#@	c #8E403F",
"$@	c #000110",
"%@	c #000817",
"&@	c #110003",
"*@	c #9C2F2B",
"=@	c #9F2D22",
"-@	c #8E373D",
";@	c #090205",
">@	c #F1EFF2",
",@	c #DFDBD8",
"'@	c #EFE8E8",
")@	c #F2EBEE",
"!@	c #989A9C",
"~@	c #060307",
"{@	c #E7E2E6",
"]@	c #EBE6E8",
"^@	c #FFFAFD",
"/@	c #A1A1A1",
"(@	c #000E21",
"_@	c #123347",
":@	c #330B02",
"<@	c #B52624",
"[@	c #B22822",
"}@	c #95311E",
"|@	c #1E0000",
"1@	c #000405",
"2@	c #020C17",
"3@	c #692B2E",
"4@	c #9F2E27",
"5@	c #170101",
"6@	c #140002",
"7@	c #942E29",
"8@	c #8E3329",
"9@	c #200000",
"0@	c #9B3737",
"a@	c #A03031",
"b@	c #902F29",
"c@	c #170000",
"d@	c #000809",
"e@	c #101F41",
"f@	c #7A7B78",
"g@	c #F0EEED",
"h@	c #D8D0D3",
"i@	c #948F90",
"j@	c #080401",
"k@	c #0F0003",
"l@	c #DEDCDA",
"m@	c #E9E4E5",
"n@	c #BBB6B8",
"o@	c #A9A2A4",
"p@	c #020907",
"q@	c #072435",
"r@	c #884137",
"s@	c #9F302C",
"t@	c #94291B",
"u@	c #9D3224",
"v@	c #1B0000",
"w@	c #8A2A24",
"x@	c #843830",
"y@	c #040005",
"z@	c #030401",
"A@	c #030900",
"B@	c #000D19",
"C@	c #072D40",
"D@	c #0B0708",
"E@	c #030100",
"F@	c #3D4142",
"G@	c #7D1A14",
"H@	c #DD1D25",
"I@	c #130000",
"J@	c #0B0003",
"K@	c #262324",
"L@	c #0A0001",
"M@	c #DBAD9F",
"N@	c #000002",
"O@	c #011D34",
"P@	c #000310",
"Q@	c #030603",
"R@	c #160002",
"S@	c #0D0000",
"T@	c #130005",
"U@	c #AE4142",
"V@	c #D61C27",
"W@	c #CF1E27",
"X@	c #C82F40",
"Y@	c #000C0E",
"Z@	c #220500",
"`@	c #E8685A",
" #	c #C81D29",
".#	c #C63339",
"+#	c #D41224",
"@#	c #D72121",
"##	c #D52221",
"$#	c #DA1D2B",
"%#	c #D32230",
"&#	c #D22D35",
"*#	c #CB2728",
"=#	c #DE8C73",
"-#	c #010206",
";#	c #05030F",
">#	c #CF252A",
",#	c #DD2022",
"'#	c #DE1A1D",
")#	c #B03B35",
"!#	c #A43136",
"~#	c #D72025",
"{#	c #D52228",
"]#	c #CC252B",
"^#	c #050407",
"/#	c #0F0000",
"(#	c #EA7060",
"_#	c #D42120",
":#	c #DD1E28",
"<#	c #E21C26",
"[#	c #DC1D29",
"}#	c #D32C30",
"|#	c #2E0000",
"1#	c #090303",
"2#	c #580405",
"3#	c #CD9881",
"4#	c #030B13",
"5#	c #020003",
"6#	c #CD2429",
"7#	c #74261C",
"8#	c #220401",
"9#	c #D51F2F",
"0#	c #6F0E16",
"a#	c #A42C29",
"b#	c #000713",
"c#	c #00000F",
"d#	c #3C2219",
"e#	c #350709",
"f#	c #050805",
"g#	c #190000",
"h#	c #050503",
"i#	c #090703",
"j#	c #B8B2BB",
"k#	c #C4C1C4",
"l#	c #D6D3D2",
"m#	c #3B0000",
"n#	c #D70C1C",
"o#	c #E78D75",
"p#	c #100A06",
"q#	c #030507",
"r#	c #A0291F",
"s#	c #D71F2D",
"t#	c #B82D1F",
"u#	c #040904",
"v#	c #010612",
"w#	c #8F2F31",
"x#	c #A92929",
"y#	c #9B3E3D",
"z#	c #030505",
"A#	c #060008",
"B#	c #080008",
"C#	c #5F4038",
"D#	c #DC2626",
"E#	c #670007",
"F#	c #898C89",
"G#	c #FFFFFD",
"H#	c #FFFDFE",
"I#	c #FFFCFE",
"J#	c #F1F6F7",
"K#	c #C9CCC9",
"L#	c #282826",
"M#	c #121514",
"N#	c #535054",
"O#	c #050206",
"P#	c #B82A2D",
"Q#	c #DE2831",
"R#	c #290000",
"S#	c #280400",
"T#	c #030200",
"U#	c #893239",
"V#	c #963126",
"W#	c #260300",
"X#	c #030001",
"Y#	c #913836",
"Z#	c #0B0500",
"`#	c #D11D38",
" $	c #D91C2A",
".$	c #A02B20",
"+$	c #08010D",
"@$	c #CC2328",
"#$	c #6E6A69",
"$$	c #3D403D",
"%$	c #050505",
"&$	c #010400",
"*$	c #000201",
"=$	c #2B2B2B",
"-$	c #B0ABAC",
";$	c #C8C1C4",
">$	c #C8C8C8",
",$	c #4C4A4B",
"'$	c #B82A31",
")$	c #250000",
"!$	c #C82F3C",
"~$	c #DB1E1E",
"{$	c #641711",
"]$	c #060000",
"^$	c #180104",
"/$	c #113043",
"($	c #02081B",
"_$	c #340002",
":$	c #D9201F",
"<$	c #C72535",
"[$	c #110301",
"}$	c #7D302F",
"|$	c #D42225",
"1$	c #C71920",
"2$	c #7E2225",
"3$	c #0E0000",
"4$	c #010904",
"5$	c #000100",
"6$	c #020006",
"7$	c #410000",
"8$	c #D5222C",
"9$	c #DD2524",
"0$	c #400005",
"a$	c #190301",
"b$	c #882E31",
"c$	c #AB3340",
"d$	c #070201",
"e$	c #101310",
"f$	c #0F0505",
"g$	c #010511",
"h$	c #061E36",
"i$	c #1D0000",
"j$	c #7A1E24",
"k$	c #C63639",
"l$	c #D5232F",
"m$	c #D51D29",
"n$	c #D32122",
"o$	c #D52527",
"p$	c #CF2224",
"q$	c #C81F1F",
"r$	c #DF2230",
"s$	c #D61E2A",
"t$	c #D52029",
"u$	c #C7212B",
"v$	c #B74243",
"w$	c #470807",
"x$	c #000404",
"y$	c #24000B",
"z$	c #992727",
"A$	c #090100",
"B$	c #080000",
"C$	c #000503",
"D$	c #010304",
"E$	c #010101",
"F$	c #00020C",
"G$	c #160D09",
"H$	c #2E3D41",
"I$	c #6C2B31",
"J$	c #9E2621",
"K$	c #0E0302",
"L$	c #090109",
"M$	c #AB1F23",
"N$	c #3A1F1C",
"O$	c #74392F",
"P$	c #00060E",
"Q$	c #771929",
"R$	c #0C0409",
"S$	c #51221E",
"T$	c #8E2E2E",
"U$	c #000714",
"V$	c #0F0104",
"W$	c #00070D",
"X$	c #001722",
"Y$	c #000A14",
"Z$	c #000315",
"`$	c #08000A",
" %	c #080D0C",
"                                                                                                    ",
"                                                                                                    ",
"                      . + @ # $ %                                         & * = - ; > ,             ",
"                    ' ) ! ~ { ] ^ /                                     ( _ : < [ } | 1 2           ",
"                  3 4 5 6 7 8 9 0 a b                                 c d e f g h i j k l m         ",
"                n o p q r s t     u                                   v w x y z A B C i h D E       ",
"                F G H I J K L M N O P                                   Q * R S T U V i W X Y       ",
"              Z `  ...+.@.X #.$.%.&.*.=.                              -.;.>.,.'.).B | 7 !.~.{.].    ",
"              ^.@.h h +.K /.(.  _.8 :.<.[.                          }.|.1.2.    3.4.5.6.7.< 8.9.    ",
"              0.a.| b.c.d.e.  f.g.h ..G 2.  h.i.j.k.    l.m.n.v   o.p.q.< r.s.    t.u.< v.w.5.x.    ",
"              y.z.a.A.+.B.C.  D.E.A.F.G.H.I.J.K.L.M.N.O.P.Q.R.S.N.T.U.V.W.X.Y.    Z.`. +..+..+++    ",
"              @+#+..$+%+&+*+    N.=+@.-+;+>+,+'+)+!+~+{+]+8.^+/+(+_+:+<+[+}+|+    1+2++...3+4+5+    ",
"              6+7+ +X :.8+9+  0+!.K k a+b+c+d+e+f+g+h+i+j+k+l+;+m+n+o+h h '+p+q+  r+s+t+u+v+w+x+    ",
"                y+z+A+B+C+    D+E+5.F+G+H+I+J+K+L+M+N+O+P+Q+R+S+T+U+V+V h V [ W+    X+Y+Z+`+ @      ",
"                  .@+@@@#@$@%@&@*@=@-@;@  2.>@,@'@)@!@~@{@L+]@^@/@(@_@:@<@[@}@|@1@2@3@4@4@5@        ",
"                    6@7@8@9@0@a@b@c@d@    e@f@g@h@i@j@k@l@m@n@o@p@    q@j@r@s@t@u@v@w@x@i+          ",
"                      y@z@N.A@~@B@        C@D@E@F@X+G@H@I@J@K@L@M@N@      O@P@Q@R@S@{+T@            ",
"                      U@V@W@X@Y@          Z@`@ #.#+#@###$#%#&#<+*#=#-#        ;#>#,#'#)#            ",
"                      !#~#{#]#^#        /#(#_#5.:#7 @.c.<#[#}#|#1#2#3#4#      5#6#5.C 7#            ",
"                      8#9#0#a#b#    c#d#e#f#V+g#v@I@S@i+h#i#j#k#l#m#n#o#p#    q#r#s#t#u#            ",
"                      v#w#x#y#z#A#B#C#D#E#F#G#H#I#G#J#  K#L#M#N#O#P#J Q#>+R#S#T#U#V#W#              ",
"                        X#Y#Z#`# $.$+$H@@$9+#$$$%$&$*$=$-$;$>$,$Y.).j '$)$!$~${$]$^$/$              ",
"                          ($_$:$<$[$}$} |$1$2$3$2.4$2.2.5$2.6$7$8$h h 9$0$a$b$c$d$                  ",
"                            e$f$g$  h$6$i$j$k$l$m$n$o$p$q$r$s$t$u$v$w$+ x$                          ",
"                                      y$z$A$k.i$B$C$D$2.E$2.F$;+G$H$I$J$K$                          ",
"                                      L$M$>+  N$O$          P$Q$R$  S$T$U$                          ",
"                                        V$W$  X$Y$            Z$    `$ %                            ",
"                                                                                                    ",
"                                                                                                    ",
"                                                                                                    ",
"                                                                                                    ",
"                                                                                                    "};
